<?xml version="1.0" encoding="utf-8"?>
<!DOCTYPE svg PUBLIC "-//W3C//DTD SVG 20010904//EN" "http://www.w3.org/TR/2001/REC-SVG-20010904/DTD/svg10.dtd">
<svg version="1.0" width="2850pt" height="2850pt" viewBox="0 0 2850 2850" preserveAspectRatio="xMidYMid meet" xmlns="http://www.w3.org/2000/svg">
  <g transform="translate(0,2850)scale(.075,.075)">
    <path id="path1" d="M 2419 -28510 l -5 0 -42 222 -43 223 -14 110 -14 110 -12 205 -13 205 12 325 11 325 21 160 21 160 44 220 44 220 50 180 50 180 55 157 56 158 41 102 41 103 60 135 60 135 51 95 50 95 100 170 100 170 88 127 89 128 114 148 113 147 123 145 123 145 174 186 174 187 174 161 175 161 48 43 47 43 125 105 125 104 156 120 156 121 139 99 139 100 185 124 185 125 217 133 218 133 152 85 152 86 220 121 221 121 265 132 265 133 228 106 228 106 302 134 302 135 261 110 260 110 482 190 482 191 193 75 193 75 12 12 12 12 0 9 0 10 -71 -7 -70 -6 -232 -60 -232 -59 -360 -104 -360 -104 -510 -153 -510 -154 -250 -77 -250 -78 -487 -160 -488 -161 -312 -113 -313 -114 -223 -86 -222 -87 -240 -100 -240 -100 -242 -108 -243 -109 -205 -93 -205 -93 -363 -169 -362 -168 -302 -145 -302 -146 -50 -14 -49 -15 -15 12 -14 12 6 44 6 44 40 164 39 163 36 118 36 118 59 153 60 152 62 118 62 117 45 75 44 75 85 125 85 125 128 161 128 160 132 137 132 138 133 114 134 115 110 80 109 79 83 53 83 52 163 98 162 98 280 140 279 140 96 40 95 40 150 60 150 60 300 100 300 100 340 85 340 85 295 60 295 60 105 20 105 20 318 55 317 56 407 64 408 65 215 30 215 30 275 35 275 35 78 15 77 16 8 8 8 9 -228 7 -228 8 -375 -7 -375 -7 -270 -10 -270 -9 -227 -10 -228 -10 -325 -20 -325 -20 -205 -15 -205 -15 -588 -55 -587 -55 -657 -60 -658 -60 -140 -10 -140 -10 -62 1 -63 1 -17 5 -18 5 0 30 0 29 51 86 50 85 70 104 69 104 60 83 60 84 114 134 113 134 134 125 134 125 143 108 142 107 112 66 113 66 107 54 108 54 172 68 173 68 73 22 72 22 132 35 133 36 190 38 190 38 207 27 208 26 145 15 145 15 225 10 225 10 245 -10 245 -10 252 -20 253 -20 165 -19 165 -19 225 -30 225 -31 327 -61 328 -60 122 -24 123 -25 93 0 92 -1 -28 24 -27 24 -125 42 -125 43 -95 28 -96 29 -364 101 -365 101 -543 134 -542 134 -520 120 -520 120 -675 150 -675 150 -45 11 -45 11 1 7 0 6 132 105 132 105 95 68 95 68 152 89 153 90 132 65 133 64 80 33 80 33 131 41 131 41 174 36 174 36 94 15 95 15 175 12 176 11 176 -7 176 -7 152 -19 151 -19 50 -5 50 -5 188 -41 187 -40 177 -55 178 -54 120 -45 120 -45 95 -40 95 -40 179 -89 179 -90 181 -110 181 -111 70 -45 70 -45 150 -110 150 -110 10 0 10 0 0 20 0 20 -36 45 -35 46 -92 104 -92 104 -197 198 -196 198 -210 192 -210 192 -101 86 -101 85 -90 70 -90 70 -185 135 -185 135 -272 182 -273 182 -182 111 -182 110 -1 7 0 6 28 11 27 10 135 45 135 46 133 25 132 25 140 15 140 15 282 -5 283 -5 95 -13 95 -14 114 -28 115 -28 115 -46 116 -46 83 -43 82 -42 99 -62 99 -63 195 -195 196 -195 125 -149 125 -149 22 -15 22 -16 111 -89 111 -89 69 -35 69 -35 11 5 11 5 65 173 64 174 51 106 52 105 69 105 70 104 57 67 57 68 98 101 97 101 128 106 129 107 169 113 169 112 53 32 54 33 181 93 182 92 102 44 103 44 273 91 272 91 118 29 119 29 46 6 47 6 15 -12 15 -13 -6 -22 -7 -23 -181 -155 -181 -156 -85 -81 -85 -80 -24 -19 -24 -18 -46 -59 -46 -59 -157 -161 -158 -162 -90 -110 -90 -110 -95 -125 -95 -125 -90 -135 -90 -135 -36 -62 -37 -63 -92 -170 -92 -170 -79 -170 -78 -170 -38 -93 -37 -93 -71 -214 -70 -215 -21 -72 -21 -73 -38 -140 -38 -140 -36 -175 -36 -175 -10 -73 -10 -72 -20 -165 -20 -165 -20 -230 -20 -230 -10 -160 -10 -160 -11 -292 -10 -293 -10 -310 -10 -310 -14 -210 -15 -210 -14 -90 -14 -90 -26 -103 -26 -102 -64 -132 -64 -133 -49 -69 -48 -69 -57 -63 -57 -63 -63 -57 -63 -56 -99 -75 -98 -75 -152 -94 -151 -95 -130 -76 -130 -75 -225 -123 -225 -122 -270 -140 -270 -140 -305 -160 -305 -161 -430 -253 -430 -254 -170 -105 -170 -105 -330 -214 -330 -213 -190 -132 -190 -132 -370 -269 -370 -270 -150 -115 -150 -115 -187 -153 -188 -152 -208 -179 -207 -178 -223 -202 -222 -201 -138 -128 -138 -127 -294 -285 -294 -285 -211 -220 -211 -220 -105 -115 -104 -115 -121 -140 -121 -140 -164 -205 -165 -205 -140 -185 -140 -185 -127 -178 -127 -178 -123 -188 -122 -188 -100 -176 -100 -176 -6 -1 z M 35648 -28500 l -8 0 -26 42 -27 43 -85 135 -85 135 -170 255 -170 255 -111 155 -111 155 -144 185 -145 185 -95 115 -95 115 -148 173 -148 172 -194 212 -194 213 -468 465 -469 465 -135 125 -135 125 -100 90 -100 90 -177 153 -178 152 -240 200 -240 200 -322 242 -323 242 -253 183 -252 183 -218 152 -217 153 -230 155 -230 155 -503 303 -502 302 -350 200 -350 200 -608 332 -607 331 -133 79 -132 78 -202 134 -203 134 -70 58 -70 59 -86 86 -86 87 -67 98 -68 99 -48 96 -49 97 -22 63 -22 64 -13 65 -12 65 -16 175 -16 175 -10 223 -10 222 -11 322 -10 323 -9 195 -9 195 -11 185 -12 185 -19 197 -19 198 -25 160 -25 160 -26 132 -26 133 -61 245 -62 245 -38 125 -39 125 -30 90 -30 90 -87 215 -86 215 -69 145 -68 145 -97 170 -96 170 -127 193 -128 192 -82 108 -82 107 -75 87 -76 87 -295 293 -295 293 -108 95 -107 95 -135 103 -135 102 -70 57 -70 56 0 19 0 18 52 1 53 0 145 -34 145 -34 207 -66 208 -67 182 -71 183 -72 180 -89 180 -90 155 -91 154 -92 128 -91 127 -91 127 -104 126 -104 134 -137 134 -138 73 -92 74 -93 46 -77 47 -78 45 -102 46 -103 39 -113 40 -113 25 -49 26 -50 16 0 16 0 46 28 46 28 83 64 82 65 123 124 122 124 93 114 92 113 62 71 63 71 84 71 85 71 98 68 98 68 122 60 123 60 167 55 168 55 132 16 133 16 393 -1 392 -1 112 -16 113 -15 119 -31 120 -32 77 -29 77 -29 6 -15 7 -14 -12 -15 -12 -16 -87 -58 -87 -59 -189 -114 -189 -114 -270 -181 -270 -180 -77 -56 -78 -56 -185 -145 -185 -145 -105 -95 -105 -95 -281 -282 -281 -283 -123 -135 -123 -135 -42 -52 -41 -52 3 -18 3 -18 16 0 15 0 52 47 52 48 102 68 102 67 88 53 88 52 198 112 197 111 197 99 198 98 90 40 90 40 140 55 140 55 159 44 159 44 156 31 156 31 70 10 70 10 222 15 223 16 170 -6 170 -6 173 -19 172 -20 72 -12 73 -13 100 -24 100 -23 140 -47 140 -46 125 -55 125 -55 138 -75 138 -75 202 -133 202 -132 105 -102 105 -101 -15 -6 -15 -6 -175 -42 -175 -42 -260 -55 -260 -55 -345 -75 -345 -75 -425 -99 -425 -100 -375 -92 -375 -91 -375 -96 -375 -97 -318 -101 -317 -102 -75 -34 -74 -34 -1 -24 0 -23 42 5 43 6 237 51 238 50 212 40 213 39 297 41 298 40 195 20 195 20 215 15 215 15 208 11 207 11 307 -11 308 -11 118 -14 117 -14 110 -16 110 -16 195 -40 195 -39 190 -46 190 -45 195 -68 195 -69 119 -57 119 -56 86 -49 86 -48 150 -102 150 -101 96 -77 96 -78 141 -137 142 -138 110 -140 110 -140 101 -152 102 -153 39 -68 39 -68 20 -56 19 -56 0 -3 0 -2 -15 -15 -15 -16 -37 11 -37 10 -245 34 -246 33 -387 46 -388 45 -328 36 -327 35 -423 40 -422 39 -248 20 -247 19 -630 36 -630 35 -365 16 -365 15 -482 -3 -482 -3 -12 -12 -11 -11 21 -6 21 -6 185 -30 185 -30 442 -55 443 -55 117 -25 118 -25 422 -65 423 -64 227 -41 228 -40 170 -35 170 -35 142 -31 143 -32 187 -48 188 -49 135 -35 135 -35 222 -70 223 -69 103 -36 102 -35 222 -88 223 -89 140 -62 140 -62 163 -85 162 -84 145 -85 145 -85 85 -55 85 -55 157 -112 157 -113 90 -76 91 -76 163 -167 162 -166 68 -82 67 -83 57 -77 58 -76 70 -101 70 -101 64 -102 64 -103 102 -205 102 -205 44 -127 44 -128 25 -100 25 -100 20 -106 20 -105 0 -55 0 -56 -41 7 -41 7 -171 75 -172 75 -280 135 -280 135 -380 177 -380 178 -253 111 -252 112 -260 110 -260 110 -348 136 -347 136 -217 79 -218 79 -448 150 -447 151 -385 119 -385 119 -400 121 -400 121 -475 136 -474 136 -222 58 -222 58 -72 17 -72 16 -11 -11 -11 -11 24 -24 25 -25 300 -112 300 -112 725 -290 725 -290 275 -118 275 -119 613 -305 612 -305 208 -118 207 -117 365 -220 365 -219 137 -98 138 -98 233 -174 233 -174 164 -133 165 -132 125 -113 125 -112 241 -244 241 -243 74 -85 74 -85 123 -153 122 -152 90 -125 90 -125 85 -130 85 -131 98 -172 98 -172 87 -180 86 -180 52 -130 51 -130 59 -175 60 -175 44 -170 45 -170 25 -125 26 -125 20 -124 20 -124 19 -166 20 -166 0 -505 0 -505 -15 -95 -15 -95 -48 -197 -47 -198 -7 0 z M 19230 -24930 l -5 0 -89 328 -89 327 -19 63 -19 62 -42 0 -42 0 -358 -16 -358 -16 -7 7 -7 7 15 8 15 8 320 212 320 211 3 7 2 8 -140 374 -140 374 2 7 3 8 315 -254 315 -255 5 0 5 1 315 254 315 254 3 -8 2 -7 -140 -374 -140 -374 2 -8 3 -7 320 -211 320 -212 15 -8 15 -8 -7 -7 -7 -7 -361 16 -360 16 -40 0 -39 0 -19 -62 -19 -63 -89 -327 -89 -328 -5 0 z M 16386 -23479 l -13 -44 -61 228 -61 228 -10 10 -10 10 -235 -9 -236 -9 0 2 0 3 198 131 197 132 3 3 4 2 -72 194 -72 193 -14 38 -13 38 17 -13 18 -13 171 -137 170 -138 6 0 6 0 178 142 178 142 -65 17 -65 17 -135 62 -135 62 -132 74 -132 73 -68 43 -68 42 -92 74 -92 73 -30 48 -31 48 0 39 0 39 -20 33 -20 32 -37 0 -38 0 -35 -10 -35 -11 -45 13 -45 12 -60 34 -60 35 -65 50 -65 50 -113 111 -114 111 -60 73 -60 73 -60 92 -61 92 -24 69 -23 70 17 77 16 78 -14 17 -13 16 -73 -6 -73 -7 -44 26 -44 26 -55 62 -54 62 -90 135 -89 135 -71 126 -71 125 -51 109 -51 109 -6 52 -7 53 7 25 6 25 60 74 60 75 0 20 0 20 -15 12 -14 12 -93 20 -92 20 -32 25 -33 25 -22 36 -21 37 -34 87 -34 88 -31 92 -30 92 -50 193 -49 193 -11 81 -10 80 16 57 17 56 74 86 74 85 -2 20 -3 20 -60 3 -60 3 -32 31 -31 30 -11 44 -11 44 -11 108 -12 107 7 395 7 395 16 55 15 55 27 21 26 22 65 6 65 7 15 9 15 9 -5 3 -5 4 -60 49 -60 50 -17 20 -18 20 -31 54 -31 54 7 45 7 45 69 234 69 233 50 160 50 160 45 92 46 93 22 23 23 22 64 18 65 18 20 27 20 28 -20 37 -20 37 -33 9 -32 9 0 19 0 20 30 84 30 84 45 98 45 97 75 143 75 142 75 125 75 125 47 61 47 61 48 24 48 24 59 -15 59 -15 26 0 25 0 10 19 11 19 -20 57 -20 58 13 56 13 56 57 84 56 84 135 149 136 148 110 95 110 95 65 50 65 50 61 31 60 30 45 -7 44 -6 25 16 25 16 0 13 0 12 17 53 16 54 94 84 93 84 138 89 137 90 113 60 112 61 90 40 90 40 82 19 82 20 18 -10 18 -9 51 -40 52 -40 37 0 38 0 11 15 11 15 9 32 10 33 10 65 10 65 42 37 42 36 76 35 76 35 110 36 111 35 142 35 142 36 134 25 134 25 68 0 68 0 38 -37 37 -36 3 -26 3 -26 20 -3 20 -3 66 68 66 68 44 21 44 22 75 16 75 16 397 0 398 0 55 -12 55 -11 33 -23 33 -22 32 -71 32 -71 11 -35 10 -35 27 1 27 0 54 72 53 72 48 24 48 24 88 -9 89 -9 100 -22 100 -22 143 -35 142 -36 122 -37 122 -36 80 -38 81 -37 34 -36 34 -35 7 -79 7 -79 7 -11 7 -12 15 0 15 0 67 45 67 45 43 0 44 0 71 -25 71 -26 135 -70 136 -70 93 -55 92 -54 110 -70 110 -70 68 -58 67 -59 17 -35 16 -36 -9 -36 -9 -36 0 -35 0 -35 5 0 5 0 88 11 88 11 70 -34 69 -34 77 -57 78 -57 170 -165 170 -165 60 -79 59 -78 37 -63 36 -62 14 -52 14 -51 -12 -72 -12 -72 13 -15 13 -16 28 0 27 0 31 11 30 10 51 -25 51 -26 62 -67 63 -66 71 -102 70 -101 32 -51 33 -51 79 -161 80 -161 30 -88 30 -87 0 -74 0 -74 -25 -33 -25 -32 0 -26 0 -26 28 -19 27 -18 26 -2 25 -1 42 -35 41 -36 31 -52 31 -52 32 -80 32 -80 34 -105 34 -105 52 -206 53 -205 7 -91 7 -90 -16 -31 -16 -31 -61 -48 -62 -48 -20 -22 -20 -23 18 -20 18 -20 89 -27 89 -26 29 -33 28 -33 15 -65 15 -66 7 -302 7 -303 -11 -147 -11 -148 -11 -52 -11 -53 -31 -33 -31 -32 -35 0 -36 0 -32 -20 -33 -19 -6 -27 -7 -27 17 -31 17 -31 38 -22 39 -22 6 -26 6 -25 -10 -110 -10 -110 -30 -140 -30 -140 -25 -100 -25 -100 -50 -155 -50 -155 -20 -40 -21 -40 -37 -24 -37 -24 -59 -8 -58 -7 -34 -29 -34 -30 0 -28 0 -28 35 -31 36 -31 19 0 20 0 0 -37 0 -36 -15 -51 -15 -51 -95 -193 -95 -192 -60 -105 -60 -105 -74 -114 -75 -115 -38 -38 -38 -38 -37 -19 -36 -20 -71 14 -72 13 -17 -16 -16 -17 32 -65 32 -65 0 -35 0 -36 -32 -62 -33 -62 -60 -70 -61 -70 -179 -186 -180 -186 -118 -131 -118 -132 -10 0 -9 0 -90 45 -90 45 -45 0 -46 0 -6 -16 -6 -16 12 -48 12 -48 -15 -29 -15 -28 -68 -66 -68 -67 -98 -72 -99 -72 -89 -54 -89 -54 -152 -76 -153 -77 -84 -28 -85 -29 -106 0 -107 0 -16 -18 -17 -19 0 -21 0 -21 -32 -24 -33 -25 -80 -39 -80 -40 -170 -56 -170 -56 -185 -46 -185 -46 -110 -20 -110 -20 -35 6 -35 6 -27 10 -27 11 -25 42 -24 41 -20 18 -20 18 -21 -26 -20 -27 -13 -35 -13 -35 -55 -28 -55 -28 -105 -20 -105 -21 -135 -12 -135 -11 -120 6 -120 7 -95 10 -95 11 -100 25 -99 24 -41 24 -40 25 -27 62 -26 63 -19 3 -18 2 -48 -73 -47 -74 -26 -11 -25 -12 -60 0 -60 0 -102 26 -102 25 -172 50 -172 49 -143 49 -144 48 -39 21 -40 20 -41 36 -41 35 -12 57 -11 57 0 39 0 39 -14 5 -14 5 -30 -15 -30 -15 -32 -28 -33 -28 -46 -16 -46 -15 -82 -215 -82 -214 0 -10 0 -10 200 -133 201 -133 -4 -3 -3 -2 -120 7 -120 7 -121 1 -121 1 -52 -193 -52 -192 -13 -44 z m 2444 2361 l 125 -1 210 9 210 9 140 16 140 16 150 25 150 25 125 30 125 29 95 31 95 32 95 40 95 39 166 84 166 83 89 52 89 52 90 60 90 60 100 76 100 75 115 101 115 101 131 135 131 134 85 105 85 105 77 107 76 108 56 87 56 86 67 121 66 121 57 125 57 125 49 131 50 130 36 120 36 119 35 157 35 157 20 138 20 138 11 135 12 135 -7 243 -6 242 -20 149 -20 149 -15 81 -15 81 -30 120 -30 120 -31 102 -31 103 -49 123 -49 122 -65 140 -65 140 -92 172 -92 173 -78 123 -78 122 -91 119 -91 119 -98 106 -98 105 -118 104 -119 103 -142 107 -142 107 -113 74 -113 74 -153 87 -152 87 -150 69 -150 69 -128 44 -127 44 -127 31 -128 31 -115 20 -115 20 -152 16 -153 17 -440 1 -440 1 -97 -13 -98 -12 -150 -30 -149 -31 -126 -39 -125 -40 -120 -45 -120 -45 -190 -95 -190 -95 -150 -95 -150 -95 -135 -100 -135 -100 -142 -127 -143 -127 -137 -143 -138 -143 -102 -128 -103 -127 -73 -103 -72 -102 -70 -115 -70 -115 -84 -169 -83 -170 -46 -113 -45 -113 -31 -106 -30 -105 -20 -125 -20 -124 -11 -113 -10 -112 -6 -498 -7 -497 12 -226 11 -226 15 -82 14 -82 21 -75 20 -74 50 -120 50 -120 98 -198 98 -197 64 -110 63 -110 70 -105 70 -105 91 -120 90 -120 106 -120 107 -120 144 -141 144 -141 125 -99 125 -100 95 -65 95 -65 115 -71 115 -70 110 -57 110 -57 115 -51 115 -50 130 -48 131 -48 135 -35 135 -36 114 -20 115 -20 125 -10 125 -11 45 -3 45 -4 125 -1 z M 19085 -21013 l -270 -4 -35 4 -35 3 -115 11 -115 11 -115 19 -115 20 -165 39 -165 40 -175 59 -175 59 -159 67 -160 67 -48 24 -48 24 -67 43 -68 43 -65 29 -65 30 -70 49 -70 49 -115 96 -115 96 -130 116 -130 117 -101 108 -100 109 -71 85 -70 86 -80 109 -79 110 -77 127 -77 128 -64 129 -65 128 -60 154 -60 154 -35 115 -35 115 -35 143 -36 142 -10 100 -10 101 0 527 1 527 14 115 15 115 36 140 36 140 54 157 54 158 59 142 59 143 76 153 76 152 78 125 77 126 88 117 87 117 128 145 129 145 144 126 144 127 99 77 100 78 138 88 138 89 98 55 97 55 135 64 135 64 117 46 118 46 128 41 127 41 134 35 134 35 190 34 190 34 299 0 300 0 121 -14 122 -15 145 -21 145 -22 137 -34 138 -34 125 -39 126 -40 153 -60 153 -59 141 -71 141 -71 133 -81 133 -81 99 -71 100 -72 105 -88 106 -88 133 -129 132 -130 108 -126 107 -127 77 -103 78 -104 70 -115 70 -115 80 -160 80 -161 65 -167 64 -167 35 -115 34 -115 36 -153 36 -153 20 -137 20 -137 11 -110 11 -110 -6 -293 -6 -292 -21 -146 -20 -146 -24 -118 -24 -117 -21 -84 -21 -84 -44 -135 -44 -135 -62 -155 -62 -155 -60 -115 -60 -115 -64 -107 -63 -108 -64 -92 -63 -93 -100 -125 -100 -125 -118 -124 -119 -123 -100 -87 -101 -87 -90 -70 -90 -70 -125 -84 -125 -84 -120 -69 -120 -69 -115 -55 -115 -55 -140 -55 -140 -55 -125 -38 -125 -39 -84 -21 -84 -21 -117 -24 -118 -24 -148 -20 -149 -19 -270 -5 z m 359 403 l 91 0 115 19 115 19 110 27 110 26 90 28 90 29 91 35 90 35 103 47 102 47 122 67 122 68 100 64 100 64 140 106 140 107 171 173 171 174 79 100 80 100 81 110 80 110 22 42 21 42 0 20 0 21 -68 34 -69 35 -189 71 -189 72 -325 109 -325 110 -157 39 -158 40 -88 15 -87 15 -127 0 -128 0 -75 -20 -75 -20 -71 -36 -71 -35 -50 -47 -51 -47 -35 -55 -35 -55 -33 -70 -32 -70 -20 -75 -20 -75 -21 -105 -21 -105 -20 -145 -20 -145 -26 -270 -25 -270 -19 -165 -19 -165 -3 -106 -3 -106 14 -17 13 -16 92 0 z m -873 11 l 97 -1 12 15 13 16 -7 162 -7 162 -15 185 -15 185 -20 210 -20 210 -19 170 -20 170 -16 90 -15 90 -21 70 -21 70 -53 105 -53 105 -68 68 -68 68 -42 23 -41 24 -49 16 -48 16 -97 10 -96 11 -101 -11 -101 -10 -108 -21 -107 -21 -193 -59 -192 -59 -228 -86 -227 -86 -209 -85 -210 -85 -40 -25 -41 -25 -27 -26 -28 -26 0 -20 0 -19 70 -109 70 -108 91 -113 92 -112 106 -108 106 -109 150 -127 150 -127 80 -60 80 -61 75 -50 75 -50 120 -68 120 -68 75 -35 75 -34 120 -45 120 -45 115 -34 115 -34 125 -30 125 -30 75 -14 75 -14 96 -1 z m -2835 2309 l 15 0 97 41 97 41 250 125 250 125 185 106 185 106 140 89 140 90 85 65 85 65 93 91 94 91 37 55 37 55 22 52 22 52 0 75 0 75 -16 48 -16 48 -41 60 -40 60 -91 94 -91 95 -123 108 -122 108 -122 98 -123 98 -85 65 -85 66 -288 206 -288 207 -14 0 -14 0 -34 -58 -33 -57 -62 -140 -61 -140 -60 -172 -59 -171 -30 -134 -31 -133 -20 -130 -20 -130 -10 -110 -10 -110 -6 -130 -6 -130 11 -170 11 -170 20 -135 20 -135 24 -134 25 -133 20 -69 21 -69 15 0 z m 6553 20 l 5 0 23 22 24 22 24 81 24 80 20 120 20 120 16 135 16 135 8 220 8 220 -8 174 -9 174 -25 145 -25 145 -26 101 -25 101 -60 185 -61 185 -56 125 -56 125 -48 83 -49 82 -16 0 -16 0 -81 -62 -81 -62 -300 -240 -300 -240 -105 -90 -105 -91 -190 -185 -190 -185 -60 -76 -60 -75 -30 -65 -29 -64 0 -75 0 -76 35 -68 34 -67 61 -74 61 -73 74 -64 74 -65 105 -70 105 -70 141 -81 140 -80 250 -132 249 -132 140 -65 140 -66 105 -43 105 -43 4 -1 z m -3234 434 l 110 4 65 22 65 23 75 50 76 51 53 65 53 65 34 68 34 68 0 200 0 201 -31 61 -31 61 -46 61 -46 61 -60 51 -61 51 -34 18 -34 17 -56 20 -56 19 -108 6 -108 6 -57 -12 -57 -12 -84 -40 -84 -40 -48 -41 -49 -41 -39 -51 -38 -52 -23 -44 -22 -44 -19 -55 -19 -54 0 -143 0 -142 33 -79 33 -79 25 -35 24 -36 35 -39 35 -39 50 -36 50 -36 60 -33 60 -33 65 -18 65 -19 110 4 z m -855 1937 l 25 -1 32 9 32 9 36 29 36 28 38 51 39 50 31 61 30 61 21 73 20 72 25 161 25 161 25 222 25 221 29 359 30 358 7 107 7 107 -94 -5 -94 -6 -82 -14 -82 -14 -143 -41 -143 -40 -125 -41 -125 -41 -85 -35 -85 -34 -116 -58 -115 -58 -116 -70 -117 -71 -105 -70 -106 -71 0 -10 0 -10 -11 0 -10 0 -55 -42 -55 -43 -97 -84 -97 -84 -98 -96 -98 -96 -15 -28 -15 -28 6 -17 6 -17 172 -112 172 -112 370 -219 370 -219 110 -51 110 -51 100 -37 100 -37 115 -37 115 -38 25 -1 z m 1680 44 l 125 4 65 15 65 15 55 19 55 19 105 53 105 53 115 64 115 65 210 126 210 125 200 125 200 125 57 44 58 44 0 24 0 23 -39 49 -38 48 -99 95 -99 96 -130 100 -130 101 -136 91 -136 90 -134 74 -134 75 -117 52 -118 51 -140 50 -140 50 -105 30 -105 30 -114 25 -113 24 -109 11 -109 12 -29 -11 -29 -12 7 -107 7 -107 30 -355 30 -354 20 -181 20 -180 20 -133 19 -134 25 -98 25 -99 26 -73 26 -73 28 -55 28 -55 29 -27 28 -26 35 -11 35 -11 125 5 z M 22116 -23217 l -53 -197 -5 10 -5 9 -53 196 -52 196 -7 11 -7 12 -150 -10 -149 -10 -57 0 -58 0 0 9 0 8 170 113 170 113 0 12 0 13 -75 198 -74 198 2 2 2 2 167 -134 167 -134 12 0 12 0 168 135 169 135 0 -5 0 -4 -75 -202 -76 -202 3 -7 3 -8 170 -112 170 -112 10 -10 10 -9 -180 6 -180 6 -37 4 -37 5 -11 -20 -10 -20 -54 -197 z M 14586 -22278 l -3 -2 -42 152 -43 153 -15 54 -15 54 -217 -7 -216 -7 177 118 178 118 0 11 0 11 -70 188 -71 187 5 5 4 5 163 -131 163 -130 10 8 11 8 153 122 153 123 5 -5 5 -5 -71 -187 -70 -188 0 -11 0 -11 178 -118 177 -117 -216 6 -217 7 -15 -54 -16 -54 -41 -150 -41 -150 -3 -3 z M 23776 -22278 l -3 -2 -42 152 -43 153 -15 54 -15 54 -217 -7 -216 -7 177 118 178 118 0 11 0 11 -70 188 -71 187 5 5 4 5 163 -131 163 -130 10 8 11 8 153 122 153 123 5 -5 5 -5 -71 -187 -70 -188 0 -11 0 -11 178 -118 177 -117 -216 6 -217 7 -15 -54 -16 -54 -41 -150 -41 -150 -3 -3 z " />
  </g>
</svg>