<?xml version="1.0" encoding="utf-8"?>
<!DOCTYPE svg PUBLIC "-//W3C//DTD SVG 20010904//EN" "http://www.w3.org/TR/2001/REC-SVG-20010904/DTD/svg10.dtd">
<svg version="1.0" width="11400pt" height="11400pt" viewBox="0 0 11400 11400" preserveAspectRatio="xMidYMid meet" xmlns="http://www.w3.org/2000/svg">
  <g transform="translate(0,11400)scale(.3,.3)" fill="#F00">
    <path id="path1" d="M 2391 -32453 l -7 -7 -42 222 -42 223 -14 110 -14 110 -13 175 -12 175 7 320 6 320 16 130 15 130 15 100 14 100 26 130 26 130 24 103 24 103 35 122 34 122 56 163 55 162 49 122 49 123 52 115 51 115 60 114 60 115 112 185 111 186 81 115 81 115 121 155 121 155 125 146 125 146 155 164 155 164 143 135 144 135 93 83 92 82 112 94 113 94 145 112 144 111 151 108 150 108 185 124 185 123 208 128 209 129 239 134 239 135 100 55 100 55 380 190 380 190 230 105 230 105 135 60 135 60 315 135 315 135 338 134 337 134 374 146 373 146 14 11 14 11 0 10 0 11 -68 -7 -67 -7 -195 -49 -195 -49 -367 -106 -368 -105 -485 -145 -485 -145 -448 -139 -447 -140 -417 -140 -418 -141 -288 -106 -287 -106 -140 -55 -140 -56 -265 -109 -265 -110 -310 -137 -310 -138 -460 -213 -460 -212 -355 -170 -355 -169 -48 -15 -48 -16 -14 12 -15 12 0 24 0 24 40 170 39 171 42 137 42 137 59 150 60 150 44 87 44 88 75 125 75 125 80 115 80 115 122 152 123 153 87 93 88 92 87 82 87 83 88 73 88 72 113 83 113 84 157 96 157 97 112 66 113 66 263 129 262 129 153 65 153 64 177 66 177 65 168 54 167 54 75 21 75 21 275 70 275 69 293 60 292 61 155 30 155 30 319 55 320 54 285 46 286 45 302 45 303 44 310 40 310 40 57 12 58 12 0 7 0 7 -232 8 -233 8 -307 -7 -308 -6 -310 -10 -310 -10 -348 -16 -347 -17 -270 -18 -269 -18 -151 -11 -150 -12 -1237 -114 -1238 -114 -144 -10 -144 -10 -91 0 -91 0 0 37 0 36 47 81 46 81 70 105 70 105 63 87 64 88 81 98 82 97 96 100 96 100 75 65 75 65 120 90 120 90 140 84 140 84 109 55 110 54 160 63 161 63 120 35 120 36 103 25 102 26 150 30 150 30 102 16 103 16 57 9 58 9 210 20 210 20 235 10 235 10 235 -10 235 -10 215 -15 215 -15 272 -32 273 -31 167 -24 168 -23 212 -39 213 -39 243 -46 242 -47 83 3 82 3 -27 19 -27 18 -98 37 -98 36 -217 63 -218 62 -250 70 -250 70 -485 120 -485 120 -552 128 -553 127 -727 163 -728 162 -46 12 -46 13 159 126 158 126 75 52 75 53 143 84 142 84 152 75 153 75 70 27 70 27 135 43 135 42 167 36 168 35 105 15 105 15 160 11 160 12 186 -7 186 -7 164 -19 164 -20 152 -29 153 -30 67 -15 68 -16 155 -45 155 -45 68 -25 67 -25 143 -55 142 -55 200 -100 200 -100 155 -90 155 -90 120 -80 120 -80 128 -94 128 -95 17 -7 17 -7 0 15 0 14 -31 44 -31 45 -29 37 -29 38 -318 322 -317 323 -155 140 -155 140 -93 77 -92 78 -90 70 -90 70 -227 166 -227 166 -248 164 -248 164 -181 112 -182 112 29 11 29 12 135 46 135 45 130 26 130 27 137 14 138 15 302 -5 303 -5 80 -12 80 -11 130 -31 130 -31 110 -46 110 -46 85 -43 85 -44 98 -65 99 -66 193 -195 194 -195 115 -136 115 -137 122 -98 121 -99 81 -47 81 -48 12 0 12 0 31 78 31 77 41 110 41 110 40 85 39 85 60 93 59 92 55 70 55 70 152 152 153 153 90 75 90 75 175 116 175 116 130 73 130 73 135 63 135 63 70 30 70 30 285 93 285 93 110 29 110 28 47 4 48 4 12 -9 12 -9 -8 -26 -7 -26 -138 -118 -138 -117 -132 -123 -131 -122 -28 -22 -27 -23 -20 -30 -20 -30 -155 -160 -155 -160 -110 -130 -110 -130 -95 -124 -95 -123 -105 -162 -105 -161 -60 -106 -60 -105 -123 -247 -122 -247 -45 -112 -46 -113 -37 -110 -37 -110 -53 -167 -52 -168 -50 -185 -50 -185 -29 -148 -30 -147 -25 -190 -26 -190 -25 -285 -24 -285 -11 -163 -10 -162 -10 -292 -10 -293 -10 -313 -10 -312 -9 -138 -9 -137 -16 -140 -17 -140 -25 -98 -25 -98 -21 -57 -21 -57 -51 -100 -51 -100 -64 -84 -64 -83 -84 -84 -85 -83 -114 -86 -114 -85 -88 -58 -89 -57 -181 -107 -182 -108 -248 -135 -247 -134 -365 -190 -365 -189 -218 -116 -219 -116 -426 -254 -427 -253 -173 -106 -172 -107 -327 -212 -326 -212 -219 -153 -218 -153 -350 -255 -350 -255 -160 -125 -160 -125 -165 -135 -165 -135 -178 -152 -177 -152 -245 -221 -245 -221 -220 -204 -220 -205 -350 -350 -351 -350 -165 -180 -165 -180 -125 -145 -125 -145 -165 -205 -165 -205 -155 -205 -155 -205 -111 -155 -110 -155 -117 -178 -116 -177 -111 -193 -111 -192 -7 -8 z M 35621 -32443 l -7 -7 -89 142 -89 143 -199 300 -200 300 -96 135 -95 135 -140 180 -140 180 -91 110 -90 110 -179 210 -180 210 -150 165 -149 165 -363 365 -362 365 -261 247 -261 248 -98 88 -97 89 -187 161 -188 162 -242 202 -243 202 -340 256 -340 255 -290 209 -290 209 -243 168 -242 169 -188 123 -189 123 -514 308 -514 309 -330 187 -330 188 -595 325 -595 325 -155 93 -155 93 -145 95 -145 96 -101 82 -101 81 -86 94 -87 93 -62 95 -63 95 -43 85 -43 85 -20 60 -21 60 -18 105 -19 105 -11 140 -11 140 -9 193 -10 192 -9 302 -10 303 -10 230 -10 230 -11 185 -11 185 -19 195 -18 195 -21 147 -21 148 -35 182 -36 183 -65 255 -66 255 -74 223 -74 222 -64 158 -63 157 -87 180 -87 180 -90 158 -89 158 -118 177 -117 177 -87 116 -86 116 -116 132 -116 131 -252 248 -253 249 -114 99 -114 99 -96 73 -96 73 -107 85 -108 86 0 19 0 19 66 0 66 0 138 -35 139 -34 277 -93 277 -93 141 -58 141 -58 180 -94 180 -95 120 -72 120 -73 153 -110 154 -110 56 -46 57 -46 154 -149 153 -149 97 -115 96 -115 48 -83 49 -83 41 -93 42 -92 43 -122 42 -122 25 -50 26 -50 14 0 15 0 53 33 53 32 93 75 93 75 93 95 94 95 116 143 117 143 89 90 89 89 48 39 47 38 105 71 105 72 117 56 117 57 148 49 148 49 82 14 83 15 468 6 467 6 80 -11 80 -11 157 -40 158 -40 68 -28 67 -27 0 -20 0 -20 -68 -51 -68 -51 -206 -124 -207 -124 -255 -170 -256 -169 -117 -83 -118 -83 -195 -160 -195 -160 -175 -160 -175 -160 -195 -205 -195 -205 -115 -125 -115 -125 -40 -49 -40 -49 0 -16 0 -16 15 -7 16 -7 59 57 60 57 72 49 73 48 153 92 153 92 142 77 142 77 188 98 188 99 157 68 157 68 120 44 120 43 153 43 152 42 178 31 177 31 83 9 82 9 162 11 163 11 173 -6 172 -6 155 -15 155 -16 103 -18 102 -18 113 -27 112 -26 130 -45 130 -45 105 -45 105 -45 177 -98 178 -97 175 -115 175 -115 103 -100 102 -99 -3 -10 -3 -10 -202 -48 -202 -48 -358 -75 -357 -75 -340 -75 -340 -76 -355 -83 -355 -84 -705 -176 -705 -177 -315 -101 -315 -102 -83 -37 -82 -38 0 -20 0 -21 17 0 17 0 234 51 234 51 206 39 207 38 320 45 320 45 140 15 140 15 225 19 225 20 310 12 310 13 273 -12 272 -11 115 -15 115 -15 112 -18 113 -17 143 -27 142 -28 219 -50 219 -51 189 -62 189 -62 133 -65 134 -65 108 -63 109 -62 118 -78 117 -78 107 -87 108 -87 142 -139 143 -138 101 -125 101 -125 106 -156 107 -157 46 -80 46 -81 19 -50 20 -51 -6 -18 -6 -18 -14 -6 -15 -5 -30 9 -30 10 -220 30 -220 30 -340 40 -340 40 -355 40 -355 40 -108 11 -107 10 -317 30 -318 29 -311 25 -312 26 -626 34 -626 35 -205 10 -205 10 -632 0 -632 0 -5 -9 -6 -9 27 -6 28 -6 143 -25 142 -25 481 -60 482 -61 146 -28 146 -29 400 -61 400 -62 245 -44 245 -44 307 -66 308 -65 288 -76 287 -75 67 -20 68 -19 285 -95 285 -95 190 -75 190 -75 133 -59 133 -59 172 -86 172 -86 130 -75 130 -75 108 -68 107 -68 157 -113 157 -112 64 -52 64 -52 169 -166 169 -167 76 -89 76 -88 84 -110 84 -110 83 -123 82 -122 59 -98 60 -97 89 -186 90 -186 41 -117 41 -117 24 -97 25 -97 20 -110 21 -110 0 -59 0 -59 -40 7 -40 6 -162 71 -163 71 -355 170 -355 170 -335 155 -335 156 -215 95 -215 94 -295 125 -295 125 -295 115 -295 116 -133 48 -132 49 -120 45 -120 45 -488 163 -487 163 -417 127 -418 127 -398 120 -397 121 -440 125 -440 125 -258 66 -258 66 -12 -12 -11 -11 24 -24 25 -24 245 -90 245 -91 705 -280 705 -280 295 -126 295 -126 143 -64 142 -65 390 -195 390 -195 160 -85 160 -85 215 -120 215 -120 328 -198 327 -198 100 -69 100 -70 279 -208 278 -208 146 -117 146 -117 176 -156 175 -157 181 -183 181 -184 104 -120 105 -120 124 -155 124 -155 97 -137 97 -137 80 -123 79 -123 83 -145 84 -145 89 -185 89 -185 73 -185 73 -185 50 -160 51 -160 35 -135 36 -135 25 -125 26 -125 20 -125 20 -125 24 -210 25 -210 0 -435 0 -435 -20 -129 -20 -129 -46 -191 -46 -191 -7 -8 z M 19200 -28880 l -5 0 -104 385 -105 385 -7 11 -7 11 -378 -17 -379 -17 -30 4 -30 3 340 224 340 223 3 3 4 3 -146 388 -145 388 2 2 2 3 323 -260 322 -260 322 260 323 260 2 -3 2 -2 -145 -388 -146 -388 4 -3 3 -3 340 -223 340 -224 -30 -3 -30 -4 -379 17 -378 17 -7 -11 -7 -11 -105 -385 -104 -385 -5 0 z M 16361 -27405 l -18 -60 -12 45 -13 45 -50 185 -50 185 -8 9 -9 9 -238 -10 -238 -10 -3 2 -2 2 204 136 205 136 -29 78 -28 78 -56 149 -56 149 4 4 3 4 187 -151 186 -151 13 7 12 8 169 135 169 135 -64 16 -64 16 -125 58 -125 57 -130 71 -130 71 -80 50 -80 50 -87 69 -87 69 -35 49 -36 50 0 35 0 36 -14 34 -15 34 -26 7 -26 6 -60 -11 -60 -12 -37 12 -37 12 -70 40 -70 40 -95 78 -95 77 -76 79 -76 78 -60 75 -60 75 -58 90 -58 89 -24 74 -25 73 16 64 16 64 0 10 0 10 -17 16 -16 17 -68 -7 -69 -7 -44 26 -44 26 -51 57 -50 56 -94 141 -94 141 -67 118 -66 117 -56 112 -57 113 -5 66 -4 65 16 32 16 31 50 60 50 60 0 19 0 20 -13 10 -13 11 -93 20 -94 21 -33 25 -34 26 -25 42 -24 43 -42 109 -41 110 -23 75 -24 75 -45 177 -46 178 -11 87 -11 88 16 55 16 55 70 80 70 80 6 19 6 18 -13 9 -14 9 -56 0 -55 0 -26 28 -26 27 -11 43 -11 42 -11 108 -12 107 6 400 6 400 15 55 15 55 25 21 25 22 69 7 69 7 12 7 12 8 -58 48 -58 48 -28 31 -29 31 -25 49 -25 50 6 48 6 48 114 378 115 377 49 105 49 105 27 25 27 25 61 15 61 16 20 27 21 27 -17 34 -16 34 -35 13 -36 13 0 21 0 22 19 56 20 56 50 115 50 115 80 150 81 151 78 131 77 131 51 62 51 62 46 18 45 17 60 -15 60 -16 21 0 20 0 10 19 11 19 -20 58 -20 58 12 56 12 55 48 73 48 72 62 74 63 74 86 88 87 89 116 103 116 102 72 51 72 52 47 19 47 20 44 -7 43 -7 23 26 22 26 15 54 15 54 84 79 85 79 132 88 132 88 106 59 106 58 123 56 122 55 71 15 71 16 42 -25 41 -24 19 -21 19 -21 33 -6 32 -6 19 6 20 6 16 36 17 35 0 30 0 30 11 43 11 44 39 36 39 36 58 26 57 26 127 44 128 44 160 40 160 40 115 20 115 20 77 0 77 0 33 -31 32 -32 3 -31 3 -31 19 -4 18 -3 77 76 78 77 56 20 57 19 55 10 55 10 428 -2 427 -3 48 -24 48 -23 16 -24 15 -24 37 -87 36 -87 22 -4 21 -3 59 75 58 75 37 21 36 20 51 0 51 0 95 -15 95 -15 142 -35 143 -35 160 -46 160 -45 90 -40 90 -39 39 -39 38 -38 9 -79 9 -79 6 -13 6 -14 22 7 21 7 59 39 60 39 48 0 48 0 90 -35 90 -35 82 -44 83 -44 105 -59 105 -58 135 -87 135 -87 58 -51 57 -52 21 -39 20 -39 -11 -35 -10 -35 0 -29 0 -30 9 -5 8 -6 87 10 86 10 82 -41 82 -41 78 -62 79 -61 173 -175 173 -175 52 -69 52 -70 35 -71 35 -71 2 -49 2 -50 -8 -50 -8 -50 15 -20 14 -20 61 13 61 13 30 -16 30 -15 69 -67 69 -66 56 -76 55 -76 59 -90 60 -90 71 -147 71 -148 35 -96 35 -96 0 -74 0 -75 -25 -37 -25 -37 0 -16 0 -16 23 -21 23 -22 32 -5 32 -5 40 -35 40 -35 37 -62 36 -63 17 -45 17 -45 37 -103 36 -102 60 -238 61 -237 6 -82 6 -82 -13 -31 -13 -31 -84 -71 -83 -70 0 -9 0 -8 22 -16 23 -16 83 -26 82 -26 30 -33 29 -34 11 -35 10 -35 10 -160 10 -160 0 -198 0 -197 -11 -135 -10 -135 -10 -39 -11 -39 -25 -34 -25 -33 -34 0 -34 0 -34 -17 -35 -16 -11 -28 -12 -28 14 -27 13 -28 39 -27 39 -27 9 -21 8 -21 -11 -126 -11 -125 -29 -130 -29 -129 -26 -108 -27 -107 -39 -125 -40 -125 -28 -61 -28 -61 -33 -26 -34 -25 -64 -8 -64 -7 -33 -29 -34 -30 0 -28 0 -28 42 -31 42 -31 13 0 13 0 0 -37 0 -37 -22 -70 -22 -71 -99 -195 -100 -195 -88 -150 -89 -150 -52 -69 -51 -68 -41 -30 -40 -29 -25 -6 -24 -6 -65 13 -64 12 -14 -14 -14 -14 30 -67 30 -67 0 -40 0 -41 -18 -37 -18 -37 -60 -75 -59 -75 -185 -190 -185 -190 -44 -55 -44 -55 -86 -87 -86 -88 -9 0 -10 0 -79 41 -78 41 -53 5 -54 6 -6 -21 -7 -21 10 -36 11 -35 0 -21 0 -21 -72 -75 -73 -76 -113 -83 -112 -84 -110 -66 -111 -66 -137 -65 -137 -64 -68 -25 -68 -24 -108 0 -108 0 -21 -23 -22 -23 0 -16 0 -16 -32 -28 -33 -27 -75 -35 -75 -34 -139 -49 -138 -49 -237 -60 -236 -59 -95 -16 -95 -17 -37 6 -37 6 -26 12 -25 11 -22 36 -21 36 -20 22 -20 23 -15 -12 -14 -12 -23 -53 -23 -52 -49 -24 -48 -25 -105 -21 -105 -21 -135 -11 -135 -11 -135 6 -135 7 -85 10 -85 10 -100 25 -100 25 -41 24 -40 24 -28 65 -28 66 -14 0 -13 0 -50 -73 -49 -73 -26 -12 -27 -12 -59 0 -59 0 -88 20 -88 21 -221 64 -220 64 -110 39 -109 39 -50 26 -50 25 -32 34 -32 33 -10 45 -11 45 0 40 0 40 -9 14 -10 15 -27 -12 -27 -13 -42 -35 -43 -35 -42 -12 -42 -12 -53 -137 -53 -137 -31 -86 -31 -85 205 -137 205 -136 -3 -3 -3 -3 -144 9 -145 10 -100 0 -100 0 -48 -178 -48 -177 -18 -60 z m 2584 2352 l 250 4 125 10 125 10 120 15 120 15 140 25 140 25 115 29 115 29 100 34 100 34 90 38 90 37 146 74 146 73 89 52 89 52 105 70 105 70 97 74 97 73 118 104 118 104 121 123 121 124 112 140 112 139 114 173 115 173 60 108 59 107 61 133 60 132 51 138 52 137 34 115 34 115 35 155 34 155 19 135 20 135 12 135 11 135 -6 240 -7 240 -20 147 -19 146 -15 81 -15 81 -35 140 -35 140 -30 94 -29 93 -52 129 -51 129 -74 157 -74 158 -87 157 -86 158 -75 115 -75 115 -84 110 -84 110 -99 106 -98 106 -114 99 -113 100 -142 107 -142 107 -133 87 -133 87 -103 58 -102 58 -72 39 -73 39 -115 50 -116 51 -132 45 -132 46 -119 30 -119 30 -128 20 -129 21 -143 14 -142 15 -428 2 -427 3 -104 -13 -105 -12 -148 -30 -149 -31 -124 -39 -125 -40 -132 -49 -133 -49 -193 -97 -192 -97 -145 -94 -145 -94 -134 -99 -133 -99 -143 -129 -143 -128 -134 -137 -133 -138 -108 -138 -107 -137 -71 -100 -72 -100 -72 -120 -73 -120 -74 -153 -73 -152 -50 -121 -50 -122 -30 -106 -29 -106 -20 -125 -20 -125 -11 -122 -10 -122 -6 -473 -7 -473 12 -230 12 -230 15 -90 15 -90 24 -84 25 -84 51 -121 52 -121 84 -169 85 -169 65 -116 66 -116 89 -133 89 -133 86 -112 86 -112 70 -80 71 -80 145 -148 146 -149 145 -117 145 -117 110 -76 110 -76 93 -56 94 -57 131 -69 132 -69 120 -51 120 -52 120 -43 120 -44 135 -35 135 -35 116 -20 116 -20 129 -11 129 -10 45 -4 45 -3 250 4 z M 19055 -24953 l -280 -5 -35 4 -35 4 -110 10 -110 11 -145 25 -145 25 -140 35 -140 35 -185 64 -185 64 -156 66 -156 66 -84 50 -84 49 -85 42 -85 41 -65 45 -65 45 -115 96 -115 95 -125 112 -125 112 -93 96 -92 96 -100 120 -100 120 -79 112 -78 113 -60 100 -60 100 -77 153 -76 152 -60 155 -60 155 -36 122 -36 123 -29 123 -29 122 -10 85 -10 85 0 541 0 540 10 97 11 97 30 125 29 125 60 183 60 182 61 148 62 147 83 166 83 166 53 89 54 89 60 85 60 85 57 73 57 72 109 122 108 123 98 90 98 90 72 61 72 60 99 75 99 74 112 73 113 72 138 76 137 77 117 53 118 54 128 49 127 49 117 36 118 36 165 40 165 40 142 25 142 25 303 0 303 0 125 -15 125 -15 141 -20 140 -20 160 -40 159 -40 122 -40 123 -40 137 -55 138 -55 115 -55 115 -55 150 -90 150 -90 88 -62 88 -63 124 -100 123 -100 158 -158 158 -158 93 -112 93 -112 67 -90 66 -90 81 -133 81 -132 75 -155 75 -155 71 -188 70 -187 31 -110 30 -110 29 -122 29 -123 20 -132 20 -133 11 -120 12 -120 -6 -296 -7 -296 -20 -149 -21 -149 -24 -115 -24 -115 -20 -77 -21 -78 -47 -147 -46 -148 -59 -145 -59 -145 -70 -133 -69 -132 -55 -90 -55 -90 -66 -98 -67 -97 -108 -135 -107 -135 -149 -146 -148 -145 -65 -56 -65 -55 -90 -70 -90 -69 -120 -81 -120 -80 -110 -63 -110 -64 -135 -64 -135 -64 -135 -52 -135 -53 -115 -36 -115 -36 -84 -21 -84 -21 -117 -24 -118 -24 -148 -20 -149 -20 -280 -4 z m 358 403 l 77 0 125 20 124 20 155 39 155 40 138 51 138 52 170 83 170 84 140 87 140 86 140 106 140 105 158 156 158 156 98 120 98 120 86 117 86 117 20 40 21 40 0 20 0 21 -62 31 -63 32 -210 79 -210 80 -295 99 -295 100 -180 45 -180 45 -85 14 -85 15 -120 0 -120 0 -70 -19 -70 -18 -75 -36 -75 -35 -52 -47 -53 -46 -49 -81 -50 -81 -30 -81 -29 -81 -26 -119 -27 -118 -24 -171 -24 -172 -31 -325 -31 -325 -14 -115 -15 -115 0 -107 0 -107 18 -10 17 -10 78 -1 z m -867 11 l 92 -1 12 15 13 16 -7 147 -6 147 -16 195 -15 195 -19 205 -20 205 -21 180 -20 180 -20 106 -19 106 -24 71 -24 71 -43 81 -42 81 -67 72 -68 73 -51 27 -50 28 -48 14 -48 14 -88 10 -89 10 -106 -10 -107 -10 -119 -25 -119 -25 -189 -59 -188 -60 -202 -76 -203 -76 -210 -85 -210 -85 -62 -34 -62 -34 -21 -27 -21 -27 6 -24 6 -24 61 -92 61 -91 113 -140 113 -140 133 -126 133 -126 100 -84 100 -85 80 -60 80 -61 90 -60 90 -60 125 -70 125 -70 85 -36 85 -36 91 -35 91 -34 119 -36 119 -35 85 -22 85 -21 120 -23 120 -23 91 -1 z m -2829 2314 l 28 7 95 40 95 40 265 136 265 135 172 99 172 98 133 86 132 86 81 61 80 60 83 81 84 81 40 54 40 53 29 64 29 64 0 73 0 73 -17 50 -16 49 -45 64 -45 63 -81 86 -81 85 -121 107 -120 106 -127 102 -127 102 -108 82 -107 82 -265 190 -264 189 -17 4 -17 5 -40 -74 -41 -73 -54 -125 -54 -125 -57 -163 -56 -164 -29 -116 -29 -117 -25 -160 -25 -160 -6 -45 -6 -45 -10 -189 -10 -189 10 -161 11 -161 15 -110 15 -110 29 -165 30 -165 20 -70 20 -70 0 -4 0 -3 27 7 z m 6545 16 l 7 -1 20 26 20 25 25 77 26 77 19 125 20 125 18 145 17 145 1 365 0 365 -23 135 -24 135 -35 140 -34 140 -56 170 -56 170 -59 130 -59 130 -45 77 -46 78 -15 0 -14 0 -82 -63 -82 -64 -305 -243 -305 -243 -115 -101 -115 -100 -164 -160 -163 -161 -68 -80 -68 -81 -25 -49 -25 -50 -11 -55 -11 -55 9 -52 10 -52 30 -58 29 -58 64 -75 65 -75 74 -64 74 -65 113 -73 114 -74 141 -81 142 -80 245 -129 245 -128 155 -72 155 -72 80 -33 80 -32 7 -1 z m -3235 434 l 113 5 67 26 68 25 64 41 63 42 60 70 60 71 34 67 34 68 0 200 0 201 -31 60 -30 61 -51 64 -50 64 -64 54 -65 53 -70 28 -71 28 -71 8 -72 8 -67 1 -68 0 0 -10 0 -10 -40 0 -40 0 -79 -39 -78 -40 -57 -49 -58 -49 -43 -62 -43 -62 -26 -65 -26 -64 0 -168 0 -168 23 -60 24 -59 27 -45 28 -45 32 -33 31 -34 55 -43 55 -42 65 -33 65 -33 60 -18 60 -18 112 4 z m -849 1936 l 23 -1 35 15 36 15 31 26 32 27 38 51 39 51 34 74 34 74 14 56 15 56 20 130 21 130 30 255 29 255 30 370 30 370 7 92 7 92 -34 -4 -34 -4 -93 -6 -93 -5 -97 -24 -97 -25 -110 -31 -110 -31 -93 -30 -92 -29 -112 -46 -113 -46 -87 -44 -86 -43 -86 -51 -86 -50 -155 -101 -155 -101 0 -9 0 -9 -14 0 -14 0 -13 -17 -14 -16 -55 -40 -55 -41 -134 -120 -134 -121 -47 -50 -47 -51 -12 -23 -13 -23 6 -14 5 -14 173 -113 173 -113 360 -214 360 -213 112 -54 113 -54 137 -51 138 -51 90 -27 90 -28 23 -1 z m 1612 40 l 55 -1 92 10 92 10 98 31 98 31 80 41 80 40 125 70 125 69 235 141 235 141 175 109 175 110 67 49 68 50 0 20 0 19 -29 42 -29 42 -103 100 -104 100 -130 101 -130 102 -143 96 -142 96 -138 75 -137 74 -103 46 -102 45 -135 50 -136 50 -104 30 -105 31 -113 25 -112 25 -115 15 -115 14 -32 -6 -32 -6 -6 -19 -6 -18 11 -143 11 -143 19 -240 20 -240 26 -240 25 -240 20 -134 19 -133 21 -82 20 -81 26 -80 26 -80 32 -70 32 -70 27 -25 27 -25 42 -12 42 -11 55 -1 z M 22030 -27350 l -5 0 -54 204 -54 204 -6 10 -6 9 -159 -9 -159 -9 -60 3 -60 3 181 120 182 120 0 7 0 7 -75 202 -76 202 4 3 3 3 168 -134 169 -135 9 0 9 0 174 140 174 140 -23 -63 -24 -62 -57 -153 -57 -154 4 -3 3 -3 185 -121 185 -121 -85 1 -85 1 -135 7 -135 7 -11 -12 -10 -13 -54 -200 -54 -201 -6 0 z M 14571 -26175 l -17 -59 -57 208 -56 209 -5 5 -5 5 -216 -9 -215 -9 0 2 0 3 180 120 180 120 0 8 -1 7 -73 195 -73 195 3 3 2 4 167 -134 166 -133 4 0 4 0 166 133 167 134 2 -4 3 -3 -73 -195 -73 -195 -1 -7 0 -8 180 -120 180 -120 0 -3 0 -2 -117 7 -118 6 -101 1 -102 1 -42 -152 -42 -153 -17 -60 z M 23761 -26175 l -17 -59 -57 208 -56 209 -5 5 -5 5 -216 -9 -215 -9 0 2 0 3 180 120 180 120 0 8 -1 7 -73 195 -73 195 3 3 2 4 167 -134 166 -133 4 0 4 0 166 133 167 134 2 -4 3 -3 -73 -195 -73 -195 -1 -7 0 -8 180 -120 180 -120 0 -3 0 -2 -117 7 -118 6 -101 1 -102 1 -42 -152 -42 -153 -17 -60 z M 30645 -14015 l -180 -4 -75 9 -75 10 -99 21 -99 21 -71 25 -71 26 -70 34 -70 35 -61 44 -61 43 -70 75 -70 75 -42 80 -42 80 -21 78 -21 78 0 150 1 150 25 97 26 97 45 88 46 88 49 66 50 65 108 105 108 104 113 87 112 88 138 97 137 96 371 248 372 248 142 106 142 106 85 82 86 82 48 69 48 68 22 57 21 56 5 70 5 70 -15 72 -16 71 -28 58 -28 58 -47 51 -47 52 -60 32 -60 32 -58 20 -57 19 -94 11 -93 10 -97 -11 -97 -11 -90 -30 -90 -30 -65 -36 -65 -35 -64 -46 -65 -46 -75 -75 -76 -76 -63 -83 -62 -84 -55 -91 -54 -92 -55 -121 -55 -121 -44 -129 -44 -129 -24 -97 -24 -98 -15 6 -15 5 -313 181 -312 181 0 6 0 7 51 89 51 90 66 95 65 95 55 70 56 70 90 94 91 93 70 57 70 58 75 50 75 50 105 53 105 53 117 38 118 39 102 20 103 20 85 9 85 10 189 1 188 0 105 -16 104 -15 87 -25 86 -25 74 -31 74 -31 89 -58 89 -59 65 -65 65 -65 50 -75 49 -76 30 -79 31 -80 17 -78 16 -77 0 -155 0 -155 -17 -79 -17 -79 -31 -83 -30 -84 -55 -87 -55 -88 -46 -55 -47 -55 -70 -69 -70 -69 -100 -82 -100 -82 -93 -66 -92 -67 -149 -100 -149 -99 -337 -216 -337 -215 -114 -81 -113 -81 -76 -65 -75 -65 -43 -61 -44 -62 -17 -43 -16 -44 -6 -56 -6 -57 16 -63 16 -64 36 -54 36 -54 38 -30 38 -30 58 -29 59 -29 60 -17 60 -16 120 -6 120 -5 99 20 99 21 91 45 91 46 74 62 75 63 65 86 66 87 46 83 47 84 44 105 45 105 48 145 48 145 1 2 2 2 319 -137 319 -138 3 -10 3 -10 -106 -133 -106 -133 -103 -103 -103 -103 -84 -64 -83 -65 -70 -45 -70 -45 -94 -48 -94 -47 -117 -39 -116 -39 -120 -21 -119 -20 -180 -4 z M 33988 -14019 l -123 2 -75 8 -75 9 -80 16 -80 16 -90 30 -90 30 -60 30 -60 31 -73 50 -73 50 -62 67 -62 68 -34 56 -33 56 -32 87 -31 88 0 190 1 190 28 90 27 90 39 72 39 72 42 57 42 58 76 79 76 80 87 73 88 74 117 87 117 87 461 309 460 309 135 101 135 100 115 116 116 116 33 64 33 63 14 52 14 51 0 62 0 62 -11 53 -11 53 -34 71 -33 71 -61 56 -60 56 -64 30 -63 31 -69 16 -69 17 -125 -1 -125 0 -95 -25 -96 -25 -74 -36 -75 -35 -63 -41 -62 -40 -118 -118 -118 -117 -73 -109 -72 -109 -55 -109 -54 -108 -26 -62 -27 -63 -42 -125 -42 -125 -23 -90 -23 -90 -3 -4 -3 -3 -313 181 -313 181 -14 9 -14 9 47 81 46 81 69 103 68 102 62 78 62 78 72 76 72 76 90 75 90 76 82 53 83 54 102 49 103 49 93 31 94 31 89 20 89 19 116 15 115 15 194 0 193 0 117 -20 118 -20 106 -36 105 -35 79 -42 78 -42 79 -62 79 -62 56 -68 57 -68 49 -100 48 -100 21 -85 20 -85 7 -116 6 -116 -12 -97 -13 -97 -19 -72 -20 -72 -44 -91 -44 -91 -62 -84 -62 -84 -102 -100 -101 -100 -106 -82 -105 -82 -154 -108 -154 -108 -243 -155 -243 -155 -237 -156 -237 -156 -78 -62 -78 -62 -60 -61 -60 -62 -29 -60 -30 -61 -10 -60 -10 -60 11 -60 11 -60 26 -49 27 -48 43 -43 44 -43 66 -35 67 -35 65 -18 65 -18 150 0 150 -1 78 23 78 22 62 31 62 31 61 44 62 43 62 68 62 68 53 80 53 80 41 82 41 82 39 98 39 98 38 120 38 120 1 2 2 3 312 -135 312 -135 13 -7 14 -8 -65 -85 -64 -85 -91 -103 -91 -103 -87 -79 -88 -78 -77 -57 -76 -57 -77 -45 -77 -46 -74 -34 -75 -34 -88 -29 -88 -30 -98 -19 -97 -20 -97 -10 -97 -11 -123 1 z M 2858 -13930 l -545 0 8 58 8 57 17 170 17 170 7 1000 7 1000 17 115 16 115 31 125 30 124 35 91 36 90 46 80 45 80 40 55 40 55 82 80 81 80 72 48 72 49 88 43 87 43 77 26 76 26 106 25 106 25 112 18 113 17 315 0 315 0 89 -18 89 -18 81 -26 81 -25 67 -34 68 -34 65 -45 65 -45 64 -68 63 -67 48 -74 47 -73 33 -71 33 -72 30 -96 31 -96 21 -102 20 -101 17 -122 16 -123 7 -1000 7 -1000 12 -140 11 -140 10 -97 10 -98 6 -40 6 -40 -111 0 -111 0 0 19 0 18 15 144 15 144 10 160 10 160 -1 890 0 890 -9 110 -9 110 -21 129 -22 130 -24 83 -24 83 -31 78 -30 77 -40 67 -39 68 -88 89 -87 88 -105 51 -105 50 -66 16 -66 16 -74 10 -74 9 -105 1 -106 0 -84 -10 -85 -11 -74 -20 -75 -20 -80 -42 -81 -42 -70 -66 -70 -67 -48 -79 -47 -79 -34 -95 -34 -94 -21 -95 -20 -96 -16 -119 -16 -120 -9 -225 -10 -225 0 -590 0 -590 10 -305 9 -305 16 -155 15 -155 6 -43 6 -42 -544 0 z M 6534 -13930 l -546 0 6 38 7 37 14 145 15 145 11 272 11 271 -5 1149 -5 1148 -11 120 -11 120 -15 140 -16 140 -5 28 -6 27 1303 -2 1303 -3 93 -205 92 -204 -3 -3 -2 -2 -137 54 -136 54 -138 47 -138 46 -115 29 -115 29 -93 15 -92 15 -108 10 -107 9 -283 1 -282 0 0 -1458 0 -1457 10 -195 9 -195 16 -160 15 -160 5 -23 5 -22 -546 0 z M 9657 -13930 l -544 0 8 58 8 59 17 169 17 169 4 1285 5 1285 -12 225 -11 225 -17 153 -17 152 543 0 544 0 -6 -42 -6 -43 -15 -145 -15 -145 -11 -350 -11 -350 5 -1075 5 -1075 11 -140 11 -140 15 -132 15 -132 0 -6 0 -5 -543 0 z M 13633 -13930 l -1376 0 7 58 6 57 15 141 15 140 10 225 10 224 0 1050 0 1050 -10 218 -10 218 -15 142 -14 142 -7 57 -7 58 1324 0 1325 0 92 -207 92 -206 -3 -4 -4 -3 -96 40 -97 40 -155 55 -156 55 -134 35 -135 35 -92 15 -93 16 -115 9 -115 10 -303 0 -302 0 0 -910 0 -910 218 0 217 0 215 10 215 10 105 10 105 10 47 6 48 6 0 -101 0 -101 -18 0 -17 0 -155 16 -155 15 -413 6 -412 6 0 -818 0 -818 298 6 297 5 115 20 115 21 106 34 105 35 105 52 104 52 83 55 83 55 5 -4 4 -5 149 -216 150 -217 -1376 0 z M 15898 -13930 l -608 0 0 5 0 5 60 81 61 82 40 68 40 69 420 882 421 882 -27 54 -26 55 -344 662 -343 662 -42 69 -42 69 -49 67 -49 68 102 0 103 0 34 -95 33 -95 84 -170 84 -170 266 -512 266 -513 7 -8 8 -8 277 571 277 570 34 74 34 74 30 99 30 98 11 43 11 42 604 0 605 0 0 -5 0 -5 -64 -87 -63 -88 -47 -80 -46 -80 -410 -859 -410 -860 0 -7 0 -7 334 -638 334 -639 63 -119 63 -120 63 -88 63 -89 0 -5 0 -4 -99 0 -98 0 -33 92 -32 93 -63 130 -63 130 -294 559 -293 558 -9 0 -8 -1 -295 -608 -294 -608 -35 -82 -34 -81 -17 -91 -18 -91 -607 0 z M 19302 -13930 l -622 0 5 22 5 23 15 145 14 145 12 230 11 230 -5 1260 -4 1260 -17 165 -16 165 -8 67 -8 68 544 0 544 0 -6 -38 -7 -37 -14 -145 -15 -145 -10 -295 -11 -295 3 -395 3 -395 355 -6 355 -6 107 -12 108 -11 127 -20 127 -21 76 -19 76 -19 79 -27 80 -26 88 -44 89 -44 61 -44 62 -44 52 -54 51 -53 40 -58 41 -59 30 -71 29 -72 18 -80 17 -80 0 -155 -1 -155 -25 -96 -25 -95 -35 -70 -35 -69 -26 -35 -26 -35 -63 -63 -62 -64 -65 -43 -65 -43 -64 -32 -63 -31 -117 -39 -116 -39 -126 -25 -125 -26 -130 -15 -129 -15 -280 -10 -280 -10 -623 0 z m 638 113 l 215 6 75 16 75 17 58 23 58 23 55 33 55 34 51 50 51 50 34 52 34 53 31 77 30 78 19 90 19 90 6 140 7 140 -12 105 -12 105 -20 80 -20 80 -46 95 -46 95 -76 75 -76 75 -76 38 -75 37 -80 21 -79 22 -243 5 -242 4 0 -899 0 -900 8 -8 7 -7 215 5 z M 22832 -13930 l -622 0 5 22 5 23 15 150 15 150 10 195 10 195 0 1155 0 1155 -10 195 -10 195 -15 155 -16 155 -5 17 -5 18 546 0 547 0 -6 -38 -7 -37 -14 -145 -15 -145 -10 -285 -11 -285 3 -405 3 -405 110 1 110 2 60 12 60 12 65 31 65 30 60 62 60 61 47 80 46 79 46 107 45 107 76 221 76 222 35 71 36 72 44 66 43 65 88 85 89 86 71 42 71 42 81 34 81 35 118 30 117 30 100 15 100 15 105 10 105 10 267 7 268 6 0 -46 0 -47 -10 0 -10 0 -83 -10 -83 -10 -62 -20 -62 -20 -56 -32 -57 -31 -68 -64 -67 -64 -62 -89 -61 -90 -65 -130 -64 -130 -26 -62 -26 -63 -38 -75 -38 -75 -59 -90 -60 -90 -58 -65 -58 -65 -66 -58 -66 -59 -65 -43 -65 -43 -81 -40 -80 -40 -90 -31 -89 -31 -104 -24 -104 -23 17 -6 18 -7 31 0 32 0 139 -20 138 -21 134 -34 134 -35 87 -36 88 -35 79 -47 79 -47 69 -64 70 -65 48 -69 49 -68 29 -72 30 -72 18 -80 17 -80 0 -155 -1 -155 -25 -97 -26 -97 -42 -82 -42 -81 -80 -84 -79 -84 -66 -44 -67 -44 -64 -32 -63 -31 -117 -39 -116 -39 -126 -25 -125 -26 -130 -15 -129 -15 -280 -10 -280 -10 -623 0 z m 572 110 l 151 0 95 10 95 10 75 21 74 20 66 34 65 35 45 37 46 37 41 51 41 50 31 62 32 62 19 56 20 57 15 81 16 82 6 135 6 135 -12 105 -12 105 -20 80 -20 80 -46 94 -45 94 -77 76 -76 77 -76 37 -75 37 -80 21 -79 22 -243 5 -242 4 0 -899 0 -900 7 -6 6 -7 151 0 z M 27695 -13930 l -1375 0 0 3 0 4 20 179 19 179 11 185 10 185 0 1160 0 1160 -10 175 -10 175 -15 150 -16 150 -6 37 -6 38 1325 0 1325 0 93 -205 93 -205 -4 -4 -4 -4 -125 50 -125 49 -143 49 -142 50 -120 30 -120 30 -90 15 -90 15 -112 10 -113 10 -307 0 -308 0 0 -910 0 -910 230 0 230 0 195 10 195 10 122 10 123 10 37 6 38 6 0 -101 0 -101 -22 0 -23 1 -145 15 -145 15 -417 6 -418 5 0 -817 0 -818 298 6 297 5 119 21 119 21 105 35 104 35 92 44 91 44 94 62 94 61 7 -8 8 -8 116 -167 116 -168 30 -45 31 -45 -1376 0 z M 21255 -7716 l -160 -4 -60 14 -60 15 -60 21 -60 21 -65 39 -65 39 -52 45 -51 46 -47 63 -47 62 -38 75 -38 75 -25 80 -25 80 -13 80 -14 80 1 270 0 270 23 104 22 104 29 76 30 76 37 65 38 65 95 96 95 96 85 41 85 42 65 17 65 18 170 0 170 -1 70 -18 70 -19 63 -28 64 -29 64 -46 65 -46 54 -65 53 -65 37 -74 36 -75 18 -72 19 -72 7 -43 7 -42 -139 0 -139 0 -18 78 -18 77 -39 81 -38 82 -51 45 -50 45 -64 26 -65 25 -90 12 -89 12 -82 -11 -82 -12 -66 -32 -67 -31 -60 -61 -61 -61 -41 -80 -42 -81 -20 -71 -19 -72 -12 -96 -13 -95 6 -233 5 -232 17 -75 17 -75 29 -72 30 -71 31 -46 30 -46 50 -49 50 -49 61 -31 62 -31 75 -16 75 -16 87 6 86 6 66 24 67 24 40 28 41 28 29 35 30 36 30 61 30 60 22 92 22 92 138 0 138 0 -7 -48 -7 -47 -18 -75 -19 -75 -42 -85 -42 -85 -86 -85 -85 -86 -70 -36 -70 -37 -75 -22 -75 -21 -160 -4 z M 16115 -7690 l -135 0 0 1060 0 1060 135 0 135 0 0 -1060 0 -1060 -135 0 z M 17682 -7689 l -142 -1 0 1060 0 1060 140 0 140 0 2 -816 3 -815 531 813 531 813 142 3 141 3 0 -1061 0 -1060 -135 0 -135 0 -2 822 -3 823 -535 -822 -535 -822 -143 0 z M 23308 -5866 l -53 -5 -44 23 -45 23 -18 35 -19 35 4 58 3 57 20 28 20 27 35 17 34 18 50 0 50 0 35 -18 35 -17 22 -34 23 -34 0 -51 0 -51 -19 -35 -18 -35 -31 -18 -31 -18 -53 -5 z " />
  </g>
</svg>