<?xml version="1.0" encoding="utf-8"?>
<!DOCTYPE svg PUBLIC "-//W3C//DTD SVG 20010904//EN" "http://www.w3.org/TR/2001/REC-SVG-20010904/DTD/svg10.dtd">
<svg version="1.0" width="2850pt" height="2850pt" viewBox="0 0 2850 2850" preserveAspectRatio="xMidYMid meet" xmlns="http://www.w3.org/2000/svg">
  <g transform="translate(0,2850)scale(.075,.075)" fill="#C20000">
    <path id="path1" d="M 2371 -28298 l -42 223 -14 110 -14 110 -12 185 -12 185 6 300 6 300 15 135 15 135 16 105 15 105 26 130 25 130 24 102 25 103 35 127 36 128 46 135 46 135 57 145 58 145 52 115 51 115 60 115 61 115 104 175 105 175 87 125 88 125 108 140 109 140 130 153 130 153 162 172 162 172 146 137 147 138 82 73 83 74 127 106 127 106 131 100 130 101 143 104 144 104 199 134 199 133 208 128 208 128 197 111 197 112 163 88 162 88 320 160 321 161 187 87 187 87 295 132 295 131 265 112 265 112 395 157 395 157 95 36 95 37 193 75 192 76 15 11 15 11 0 11 0 10 -65 -7 -65 -6 -235 -60 -235 -60 -418 -121 -417 -121 -413 -124 -412 -124 -388 -121 -387 -120 -403 -135 -402 -134 -330 -120 -330 -120 -218 -85 -217 -86 -203 -84 -202 -85 -212 -94 -213 -94 -223 -101 -222 -101 -348 -161 -347 -161 -342 -164 -342 -163 -51 -17 -50 -16 -15 12 -15 12 0 22 0 22 20 92 20 92 25 100 25 100 36 117 35 118 55 137 54 138 56 111 57 111 70 117 70 116 80 115 80 115 108 135 108 135 98 106 98 105 85 80 85 80 91 77 91 76 116 84 116 85 118 74 118 73 145 85 145 86 267 132 268 132 138 58 137 59 140 53 140 53 190 64 190 63 103 30 102 30 280 70 280 70 235 50 235 50 210 40 210 40 318 55 317 54 317 51 318 50 272 40 273 39 290 37 290 36 75 15 75 15 8 7 7 8 -227 7 -228 8 -313 -6 -312 -6 -330 -10 -329 -11 -306 -14 -305 -15 -235 -15 -235 -15 -202 -15 -203 -15 -653 -60 -652 -60 -598 -55 -597 -54 -155 -11 -155 -12 -80 4 -80 3 1 32 2 32 48 83 47 83 70 105 70 105 62 85 62 85 104 124 104 124 113 108 112 109 60 50 60 50 100 75 100 75 125 75 125 75 122 61 122 62 148 58 148 59 138 41 137 41 100 24 100 25 93 19 92 20 115 20 115 20 142 19 143 19 165 16 165 15 220 12 220 12 263 -12 262 -11 212 -16 213 -15 220 -25 220 -25 210 -29 210 -29 235 -43 235 -43 223 -43 222 -42 62 -1 63 -1 20 4 20 3 -26 18 -26 18 -89 32 -89 32 -157 47 -158 48 -352 98 -353 97 -433 108 -432 107 -645 150 -645 150 -208 46 -207 45 -453 101 -454 100 -40 11 -40 12 144 115 143 115 85 60 85 60 140 85 140 85 137 67 138 68 100 40 100 40 124 39 124 40 141 30 141 31 125 20 125 20 173 12 173 11 165 -6 164 -5 154 -16 154 -16 86 -14 86 -14 169 -37 170 -36 163 -50 163 -49 120 -45 120 -45 112 -48 113 -47 173 -87 173 -87 147 -88 147 -88 117 -77 118 -78 136 -100 136 -100 9 0 9 0 0 14 0 13 -30 44 -30 44 -92 104 -92 105 -238 238 -238 238 -170 155 -170 155 -92 78 -93 78 -113 88 -113 88 -212 154 -212 153 -257 170 -258 171 -166 102 -167 101 84 33 84 32 83 26 83 26 122 25 122 25 165 16 166 17 282 -7 282 -6 82 -12 83 -13 112 -27 112 -27 107 -42 107 -41 96 -48 96 -49 105 -68 105 -69 175 -175 175 -174 137 -163 138 -162 40 -30 40 -30 92 -75 92 -74 72 -37 73 -37 6 5 6 5 35 89 34 89 30 83 30 82 50 105 50 105 75 112 76 111 64 76 64 76 88 90 88 90 121 100 120 100 25 18 24 17 157 105 158 105 108 61 107 61 120 58 120 59 126 53 126 53 217 73 216 72 111 31 112 30 70 15 69 14 25 -2 25 -3 11 -7 11 -6 -8 -26 -7 -27 -158 -134 -157 -134 -104 -98 -105 -98 -32 -27 -33 -27 -38 -50 -39 -50 -144 -149 -145 -149 -108 -129 -108 -129 -94 -123 -94 -122 -90 -138 -89 -137 -45 -75 -44 -75 -88 -165 -89 -165 -65 -140 -65 -140 -48 -120 -48 -120 -44 -133 -45 -132 -46 -152 -46 -153 -43 -160 -44 -160 -30 -157 -31 -158 -10 -68 -11 -67 -19 -160 -19 -160 -20 -243 -21 -242 -10 -165 -10 -165 -10 -282 -10 -283 -10 -307 -10 -308 -10 -165 -10 -165 -15 -120 -15 -120 -26 -102 -25 -103 -19 -50 -18 -50 -46 -90 -46 -91 -45 -66 -46 -65 -65 -74 -65 -74 -67 -59 -67 -59 -96 -71 -95 -72 -120 -76 -119 -75 -147 -87 -148 -86 -228 -124 -227 -124 -255 -133 -255 -132 -195 -102 -195 -102 -153 -81 -152 -82 -458 -271 -457 -272 -175 -109 -175 -110 -295 -191 -295 -192 -200 -139 -200 -140 -375 -274 -375 -274 -150 -117 -150 -117 -165 -134 -165 -135 -186 -160 -186 -160 -234 -211 -234 -211 -166 -154 -166 -154 -268 -260 -268 -260 -211 -220 -210 -220 -102 -113 -103 -112 -119 -138 -118 -137 -169 -210 -170 -210 -150 -200 -151 -200 -110 -155 -111 -155 -115 -175 -115 -175 -113 -195 -112 -195 -7 -8 -7 -7 -43 222 z M 35530 -28328 l -115 183 -170 255 -170 255 -109 152 -108 152 -132 168 -131 169 -90 110 -89 109 -174 203 -173 202 -157 173 -157 172 -381 385 -382 385 -228 216 -229 216 -125 113 -125 112 -170 147 -170 146 -245 205 -245 205 -340 255 -340 255 -253 182 -252 183 -248 173 -247 173 -195 129 -195 129 -253 153 -252 153 -272 162 -273 163 -340 194 -340 193 -470 257 -470 257 -135 74 -135 75 -163 97 -162 98 -132 89 -133 88 -74 58 -73 58 -67 61 -66 61 -50 60 -50 60 -62 94 -62 94 -41 81 -41 81 -23 70 -24 71 -16 97 -16 97 -11 148 -11 147 -9 185 -8 185 -11 313 -10 312 -10 232 -10 233 -10 160 -10 160 -16 175 -15 175 -25 175 -24 175 -36 185 -36 184 -59 233 -59 233 -45 142 -45 143 -37 105 -37 105 -67 167 -67 166 -76 159 -76 158 -93 165 -94 165 -126 190 -126 190 -80 106 -80 106 -113 128 -113 128 -235 233 -235 233 -130 115 -130 114 -95 72 -95 73 -115 91 -115 91 0 20 0 20 65 -2 65 -2 127 -31 128 -30 138 -45 137 -44 107 -36 108 -35 172 -69 173 -69 174 -89 175 -88 150 -91 151 -91 123 -88 123 -88 127 -106 127 -106 125 -130 125 -130 70 -85 70 -85 55 -90 55 -90 40 -90 40 -90 47 -132 47 -131 20 -41 21 -41 14 0 13 0 51 30 52 30 92 74 93 74 96 99 97 98 96 117 96 118 75 85 75 85 95 78 95 79 82 54 82 54 103 53 103 52 78 31 77 30 112 34 111 34 106 15 106 16 422 2 423 3 110 -17 110 -18 116 -29 116 -30 82 -31 82 -32 6 -14 6 -15 -21 -21 -20 -21 -71 -49 -71 -48 -213 -129 -212 -129 -225 -150 -225 -150 -107 -76 -108 -76 -120 -95 -120 -95 -89 -72 -89 -73 -192 -180 -191 -180 -185 -193 -184 -192 -99 -108 -100 -107 -50 -63 -51 -63 0 -14 0 -15 15 -6 15 -7 58 55 59 56 92 60 92 61 110 65 109 66 150 85 150 85 215 110 215 110 125 55 126 56 121 45 121 45 156 45 156 44 152 30 153 30 112 14 113 14 200 12 200 12 175 -8 175 -7 121 -13 120 -13 120 -20 119 -21 105 -26 104 -26 118 -39 118 -39 125 -55 125 -55 147 -81 148 -81 122 -79 123 -79 80 -55 80 -55 96 -94 96 -95 -5 -8 -5 -8 -204 -47 -203 -48 -330 -70 -330 -70 -295 -64 -295 -65 -343 -81 -342 -80 -452 -110 -453 -111 -335 -86 -335 -86 -323 -103 -322 -104 -75 -35 -75 -34 0 -21 0 -20 12 0 13 -1 245 53 245 53 233 43 232 42 245 35 245 35 240 25 240 25 178 14 177 15 285 12 285 12 285 -12 285 -12 123 -14 122 -15 118 -18 117 -17 165 -34 165 -34 195 -46 195 -46 185 -63 185 -62 144 -70 144 -70 86 -49 86 -49 130 -88 130 -87 124 -101 124 -100 133 -136 133 -135 96 -119 95 -120 100 -148 100 -148 50 -87 49 -86 16 -47 16 -47 -7 -16 -6 -16 -14 -5 -13 -5 -31 10 -30 9 -212 29 -213 30 -387 45 -388 46 -320 35 -320 35 -150 15 -150 15 -318 29 -317 29 -300 24 -300 23 -275 15 -275 15 -295 17 -295 16 -310 14 -310 13 -542 0 -542 0 -12 -12 -11 -11 56 -11 56 -11 148 -24 147 -24 450 -56 450 -56 120 -25 120 -24 420 -65 420 -65 175 -31 175 -31 145 -28 145 -29 190 -40 190 -41 143 -36 142 -35 208 -55 207 -54 163 -51 162 -50 150 -50 151 -51 22 -9 22 -9 193 -75 192 -76 132 -59 133 -58 172 -87 172 -87 130 -75 131 -74 110 -70 110 -70 148 -105 147 -105 103 -85 102 -85 140 -140 140 -140 77 -92 78 -93 91 -120 90 -121 63 -93 63 -92 64 -105 64 -104 94 -192 94 -193 41 -118 41 -118 24 -97 25 -97 20 -108 21 -108 0 -61 0 -61 -41 7 -40 6 -150 65 -149 65 -348 166 -347 167 -310 144 -310 145 -257 114 -258 114 -282 119 -283 120 -217 85 -218 86 -152 59 -153 58 -223 82 -222 81 -435 145 -435 145 -338 105 -339 104 -481 146 -482 145 -422 120 -423 121 -227 59 -228 60 -65 15 -65 15 -12 -11 -13 -10 27 -24 26 -23 54 -19 53 -20 230 -86 230 -86 703 -280 702 -281 269 -115 270 -116 138 -64 138 -64 362 -181 363 -181 190 -99 189 -100 203 -114 203 -113 155 -94 155 -94 178 -107 179 -108 170 -121 170 -122 207 -155 206 -155 144 -116 144 -115 137 -121 136 -120 220 -220 220 -220 109 -125 110 -126 116 -144 116 -145 99 -140 100 -140 82 -127 82 -128 84 -148 84 -147 85 -175 85 -175 70 -175 69 -175 51 -156 51 -155 41 -156 40 -155 29 -144 30 -144 20 -135 20 -135 18 -160 18 -160 0 -470 0 -470 -17 -115 -18 -115 -46 -190 -46 -190 -7 -8 -7 -7 -114 182 z M 19120 -24554 l -105 385 -6 11 -7 10 -378 -17 -379 -17 -30 4 -29 3 333 220 334 220 9 6 9 6 -145 388 -146 388 3 3 2 2 323 -259 322 -260 322 260 323 259 2 -2 3 -3 -146 -388 -145 -388 9 -6 9 -6 334 -220 333 -220 -29 -3 -30 -4 -379 17 -378 17 -7 -10 -6 -11 -105 -385 -105 -386 -5 0 -5 0 -105 386 z M 16310 -23295 l -64 237 -14 6 -14 5 -232 -10 -231 -10 -3 2 -2 2 205 136 205 137 -11 27 -11 28 -74 199 -74 199 4 4 3 3 187 -150 186 -151 13 7 12 8 169 135 168 135 -56 13 -56 13 -130 59 -131 60 -131 71 -130 72 -87 53 -86 54 -84 68 -85 68 -33 49 -33 48 0 34 0 35 -14 34 -15 34 -26 7 -26 6 -59 -12 -58 -12 -38 12 -39 12 -67 39 -67 39 -76 61 -76 60 -97 97 -97 97 -62 76 -62 76 -59 92 -60 92 -22 69 -22 68 16 70 16 71 -6 15 -6 14 -16 7 -17 6 -62 -7 -62 -6 -45 26 -44 26 -52 57 -51 58 -94 140 -93 140 -67 119 -67 119 -56 115 -56 114 -4 63 -4 62 15 29 15 29 51 63 51 63 0 18 0 19 -13 11 -14 11 -51 10 -52 10 -42 11 -43 11 -32 24 -33 25 -25 43 -25 43 -45 119 -45 119 -4 20 -4 20 -12 30 -12 30 -48 191 -49 190 -12 90 -12 89 16 55 16 55 71 80 70 80 6 19 6 18 -13 9 -14 9 -53 0 -54 0 -28 28 -28 29 -11 39 -11 39 -11 112 -11 111 5 394 4 393 16 60 15 60 26 21 25 22 68 7 68 7 14 8 13 7 -63 52 -64 53 -23 26 -23 27 -25 49 -26 49 4 41 5 41 61 207 62 208 55 180 55 180 50 105 50 105 26 22 25 23 61 15 61 15 20 27 21 28 -17 34 -16 34 -35 13 -36 13 0 22 0 23 25 70 25 71 45 100 45 100 85 160 85 160 72 121 73 120 47 59 47 58 46 22 46 22 67 -16 67 -16 17 0 17 0 10 18 9 17 -19 60 -20 60 12 53 11 53 54 81 54 80 55 64 55 64 98 102 99 103 106 92 106 92 71 51 70 50 46 21 46 21 46 -7 47 -6 22 20 21 20 6 31 6 30 11 30 12 30 80 76 81 76 146 97 145 96 118 64 119 64 99 43 99 44 69 15 70 15 26 -13 26 -12 40 -32 40 -33 25 -6 24 -6 23 6 23 5 17 36 17 35 0 33 1 32 9 40 9 40 39 36 38 36 70 33 69 32 117 39 118 38 157 40 158 40 118 20 119 21 75 0 75 0 33 -33 33 -33 4 -29 3 -30 18 -3 17 -4 75 76 75 76 40 15 40 15 78 18 77 17 390 0 390 0 57 -13 56 -13 34 -22 33 -22 22 -45 23 -45 22 -60 23 -60 22 -3 22 -3 58 75 58 75 41 22 41 22 84 -5 84 -6 120 -26 120 -27 137 -34 137 -35 117 -35 117 -36 78 -36 77 -35 35 -34 35 -35 6 -19 6 -20 0 -43 0 -44 11 -31 11 -32 12 0 12 0 68 45 69 45 48 0 48 0 68 -25 68 -24 115 -59 115 -60 107 -61 108 -61 126 -82 126 -83 58 -52 57 -52 16 -34 17 -34 -12 -54 -11 -55 6 -18 7 -18 30 6 30 6 58 6 57 6 83 -41 82 -41 85 -65 85 -65 155 -155 155 -155 62 -84 63 -84 32 -58 32 -59 11 -48 12 -47 -12 -64 -12 -64 11 -21 12 -21 21 0 21 0 40 12 39 12 44 -24 45 -23 60 -61 59 -61 59 -82 59 -82 56 -85 56 -86 80 -165 80 -165 25 -75 25 -75 2 -72 3 -73 -27 -39 -28 -39 0 -18 0 -18 22 -21 22 -20 34 -6 35 -6 38 -35 39 -36 35 -58 35 -59 35 -90 35 -90 25 -78 25 -77 55 -215 55 -215 6 -90 7 -91 -17 -31 -16 -32 -37 -30 -38 -29 -45 -41 -45 -41 23 -20 24 -20 82 -25 82 -25 22 -20 22 -21 14 -27 14 -28 12 -59 11 -60 6 -295 5 -295 -11 -157 -11 -158 -11 -45 -11 -45 -28 -30 -28 -30 -32 0 -32 0 -33 -16 -32 -15 -12 -25 -11 -24 5 -22 6 -22 12 -14 12 -15 36 -23 36 -22 7 -29 7 -28 -11 -115 -11 -115 -24 -115 -25 -115 -35 -140 -35 -140 -2 -9 -3 -8 -43 -127 -43 -126 -19 -37 -20 -38 -31 -22 -30 -23 -71 -12 -70 -11 -29 -28 -29 -28 0 -24 0 -24 31 -29 31 -29 24 -6 24 -6 0 -39 0 -39 -22 -67 -22 -68 -96 -190 -97 -190 -71 -123 -72 -122 -40 -60 -40 -60 -38 -47 -37 -46 -44 -29 -45 -28 -27 0 -27 0 -51 12 -52 12 -16 -16 -16 -16 32 -64 31 -65 0 -39 0 -40 -25 -50 -25 -49 -57 -70 -57 -70 -186 -190 -185 -191 -39 -49 -40 -50 -89 -91 -89 -91 -87 45 -88 45 -50 4 -50 5 -7 -18 -7 -18 12 -48 13 -47 -15 -28 -14 -28 -63 -62 -62 -62 -108 -78 -107 -78 -100 -61 -100 -61 -145 -71 -145 -71 -80 -27 -80 -28 -103 2 -102 2 -20 -20 -20 -20 0 -19 0 -19 -31 -26 -31 -26 -83 -40 -82 -39 -149 -51 -148 -50 -215 -54 -216 -54 -100 -17 -100 -17 -37 6 -37 6 -26 12 -25 11 -22 36 -21 36 -20 22 -20 23 -15 -12 -14 -12 -23 -52 -23 -51 -55 -27 -54 -27 -94 -19 -94 -19 -145 -12 -145 -11 -130 6 -130 7 -90 10 -90 11 -94 24 -93 23 -42 25 -42 25 -29 66 -28 66 -16 -3 -16 -3 -45 -68 -45 -69 -25 -14 -25 -13 -65 -1 -65 0 -103 25 -102 25 -188 54 -187 55 -119 41 -119 41 -49 25 -49 25 -39 35 -39 35 -10 50 -11 50 0 37 0 37 -9 14 -10 15 -27 -12 -27 -13 -43 -35 -43 -36 -42 -12 -42 -13 -57 -149 -56 -149 -27 -73 -27 -72 205 -137 205 -136 -2 -3 -3 -2 -160 9 -160 8 -85 1 -85 0 -34 -128 -34 -127 -32 -114 -31 -113 -64 237 z m 3090 2200 l 155 15 30 4 30 5 53 6 53 6 22 5 22 4 115 20 115 21 116 29 116 30 99 33 99 34 100 43 100 42 136 69 136 68 89 52 89 52 105 70 105 70 95 72 95 72 114 99 114 99 127 131 128 132 91 112 92 113 86 121 85 121 53 85 53 85 58 105 57 104 58 128 58 127 51 136 50 135 34 113 34 112 36 160 35 160 21 145 21 145 11 140 10 140 -6 217 -6 218 -15 120 -15 120 -19 112 -20 113 -35 141 -35 141 -31 96 -30 97 -50 125 -50 125 -79 168 -80 167 -75 138 -75 137 -81 128 -82 127 -89 115 -89 115 -95 102 -95 102 -118 103 -117 103 -135 101 -135 101 -107 72 -108 71 -108 63 -107 63 -87 47 -88 47 -117 51 -116 52 -141 49 -141 49 -125 30 -125 31 -120 19 -120 20 -143 14 -142 15 -318 6 -317 6 -177 -11 -178 -11 -90 -15 -90 -15 -108 -24 -107 -24 -125 -40 -125 -40 -133 -51 -132 -51 -182 -92 -182 -93 -134 -86 -134 -85 -137 -102 -138 -102 -144 -128 -144 -128 -135 -140 -135 -140 -100 -125 -100 -124 -75 -105 -75 -105 -77 -127 -78 -128 -80 -165 -80 -165 -45 -114 -45 -114 -30 -106 -30 -106 -20 -125 -20 -125 -10 -132 -11 -133 -6 -445 -6 -445 12 -240 11 -240 15 -90 14 -91 26 -89 26 -90 46 -107 45 -108 88 -178 87 -178 67 -117 66 -117 81 -122 81 -123 86 -113 85 -113 107 -122 107 -122 139 -135 139 -135 125 -100 125 -101 97 -67 97 -68 107 -65 107 -66 121 -63 121 -64 126 -55 126 -54 126 -46 126 -46 133 -34 133 -35 65 -11 65 -11 25 -5 25 -4 86 -11 86 -10 139 -9 139 -8 235 4 235 5 155 14 z M 18725 -21010 l -110 9 -85 11 -85 11 -110 20 -110 20 -140 35 -140 34 -163 56 -164 55 -154 64 -154 65 -62 31 -63 32 -61 38 -61 39 -69 31 -69 31 -65 46 -65 46 -103 84 -103 85 -138 122 -137 123 -100 104 -99 105 -90 109 -90 109 -71 100 -72 100 -72 118 -71 119 -75 149 -74 149 -54 138 -55 137 -36 120 -36 120 -34 137 -34 137 -13 123 -13 123 0 485 0 485 14 125 13 125 33 135 34 135 55 167 56 168 60 145 60 145 86 172 87 173 55 90 55 90 59 84 60 84 60 76 60 76 114 127 114 128 90 80 90 80 65 55 65 55 88 68 87 67 127 83 128 82 115 65 115 65 140 65 140 65 115 45 115 45 128 40 127 40 135 34 135 34 185 33 185 33 285 0 285 -1 143 -17 142 -16 134 -20 134 -21 138 -34 139 -35 125 -39 125 -39 143 -56 142 -56 138 -67 137 -67 123 -73 122 -73 100 -70 100 -70 105 -85 105 -85 99 -92 99 -93 101 -107 101 -108 72 -87 73 -88 67 -91 68 -92 80 -131 80 -131 75 -155 75 -155 65 -170 65 -169 34 -120 35 -120 31 -133 31 -132 19 -128 19 -127 12 -126 12 -125 -6 -288 -5 -287 -21 -153 -21 -152 -25 -121 -25 -120 -25 -95 -25 -94 -42 -128 -41 -127 -59 -145 -59 -145 -69 -130 -68 -130 -57 -95 -57 -95 -65 -95 -66 -95 -95 -120 -96 -120 -135 -139 -136 -138 -90 -77 -90 -78 -93 -71 -92 -72 -118 -79 -117 -78 -120 -68 -120 -69 -125 -59 -125 -60 -135 -52 -135 -53 -115 -35 -115 -36 -84 -21 -84 -21 -121 -25 -121 -25 -150 -20 -150 -20 -260 -4 -260 -3 -110 8 z m 892 416 l 108 15 123 30 124 29 86 26 87 27 110 42 110 43 90 42 90 41 100 55 100 54 37 23 37 22 92 58 92 59 11 9 11 9 115 87 115 86 170 171 171 171 86 105 85 105 87 119 88 120 19 38 19 37 0 20 0 21 -60 30 -60 30 -225 85 -225 85 -298 99 -297 100 -160 39 -160 40 -100 18 -100 17 -105 -1 -105 -1 -80 -21 -80 -20 -70 -35 -70 -34 -52 -46 -52 -46 -45 -72 -44 -72 -26 -62 -26 -62 -19 -73 -20 -73 -20 -101 -20 -101 -20 -149 -21 -149 -25 -270 -26 -270 -20 -180 -21 -180 -1 -89 -1 -88 19 -14 19 -14 73 0 72 0 108 16 z m -937 9 l 13 16 -7 150 -7 151 -15 187 -14 186 -21 215 -20 215 -20 170 -19 170 -16 90 -15 90 -25 85 -26 85 -46 89 -47 89 -66 71 -67 72 -51 27 -50 28 -49 14 -49 15 -89 9 -88 9 -103 -9 -103 -9 -119 -25 -119 -25 -193 -61 -194 -61 -220 -83 -220 -83 -203 -83 -203 -82 -51 -31 -51 -31 -20 -26 -19 -27 7 -21 6 -21 68 -103 68 -102 94 -115 94 -115 121 -121 121 -120 124 -105 124 -105 80 -60 80 -61 90 -60 90 -60 115 -64 115 -65 70 -32 70 -31 120 -46 120 -45 115 -34 115 -34 110 -27 110 -27 100 -18 100 -18 86 -1 87 -1 12 15 z m -2800 2352 l 105 45 250 128 250 127 170 98 170 97 123 79 123 78 97 73 97 73 91 87 90 87 38 55 38 55 24 58 24 58 -1 70 0 70 -17 52 -18 51 -40 57 -39 58 -89 94 -89 94 -116 102 -116 102 -127 103 -128 102 -102 78 -103 78 -270 194 -270 193 -17 4 -16 5 -35 -64 -36 -63 -57 -130 -57 -130 -59 -170 -59 -170 -29 -117 -28 -116 -21 -124 -20 -123 -11 -85 -11 -85 -9 -184 -9 -184 10 -161 10 -161 20 -140 20 -140 25 -135 24 -135 22 -73 21 -73 26 6 26 6 105 46 z m 6484 91 l 24 77 21 125 20 125 17 150 16 150 6 199 7 198 -7 167 -7 166 -25 146 -25 145 -30 121 -31 120 -59 179 -59 179 -56 125 -57 125 -46 77 -47 78 -13 0 -12 0 -86 -65 -85 -65 -302 -242 -303 -242 -115 -100 -115 -101 -174 -170 -174 -170 -59 -74 -59 -73 -23 -47 -24 -46 -11 -55 -11 -55 10 -54 10 -53 30 -56 30 -57 60 -72 60 -72 77 -67 78 -66 110 -73 110 -72 143 -82 144 -81 236 -125 237 -124 165 -77 165 -77 85 -33 85 -33 22 24 22 25 25 78 z m -3134 336 l 75 26 69 47 69 47 54 66 54 65 32 65 32 65 0 205 0 205 -26 55 -26 55 -48 63 -47 63 -66 55 -66 56 -45 20 -46 20 -10 2 -10 2 -11 7 -11 6 -39 7 -39 7 -107 4 -108 4 0 -8 0 -8 -36 -2 -37 -2 -81 -39 -81 -39 -54 -46 -54 -46 -37 -49 -37 -50 -20 -38 -20 -39 -19 -55 -19 -55 0 -150 1 -150 26 -66 26 -66 26 -42 27 -42 37 -41 37 -41 51 -37 50 -38 63 -32 63 -32 72 -19 71 -19 95 4 96 4 74 26 z m -979 1916 l 37 10 38 31 38 30 38 51 38 50 34 72 33 71 17 66 16 66 25 159 24 159 25 225 26 225 19 235 20 235 17 218 16 218 -3 3 -4 2 -115 -7 -115 -7 -90 -21 -90 -22 -140 -40 -140 -40 -103 -35 -102 -34 -95 -40 -95 -40 -80 -40 -81 -41 -112 -66 -112 -66 -127 -85 -128 -84 0 -9 0 -9 -12 0 -13 0 -35 -33 -36 -32 -24 -16 -25 -16 -106 -94 -106 -94 -80 -80 -80 -80 -17 -27 -18 -28 5 -14 6 -15 173 -114 173 -114 368 -217 367 -218 103 -48 102 -48 152 -56 151 -56 84 -24 83 -25 10 0 10 -1 36 10 z m 1809 54 l 65 15 70 24 70 24 75 38 75 38 120 67 120 67 240 143 240 143 185 117 185 116 57 42 58 43 0 20 0 20 -29 42 -29 42 -104 101 -105 100 -129 101 -129 101 -141 95 -142 95 -130 71 -130 72 -113 50 -112 50 -140 51 -141 51 -115 33 -116 34 -121 25 -120 25 -93 9 -93 10 -29 -6 -28 -5 -6 -18 -5 -17 15 -209 16 -209 19 -225 20 -225 21 -190 20 -190 20 -134 19 -133 21 -82 20 -81 25 -79 26 -80 33 -71 34 -70 25 -24 25 -24 48 -13 48 -14 110 4 110 5 65 15 z M 22000 -23204 l -55 205 -5 8 -5 8 -165 -9 -165 -9 -54 3 -54 3 181 120 182 120 0 7 0 8 -79 210 -79 211 42 -34 41 -33 134 -107 133 -107 10 0 9 0 152 122 152 123 22 18 23 19 -10 -27 -10 -27 -71 -191 -71 -190 13 -8 14 -8 175 -116 175 -116 -205 6 -205 6 -17 5 -17 5 -9 -18 -9 -18 -53 -197 -54 -198 -5 0 -6 0 -55 206 z M 14530 -22098 l -53 193 -5 19 -5 18 -206 -7 -206 -6 -20 -6 -20 -5 188 127 188 126 -7 21 -7 22 -67 181 -68 180 3 3 3 4 167 -134 166 -133 4 0 4 0 166 133 167 134 3 -4 3 -3 -68 -180 -67 -181 -7 -22 -7 -21 188 -126 188 -127 -20 5 -20 6 -207 7 -208 6 0 -6 0 -7 -56 -202 -56 -202 -2 -3 -3 -2 -53 192 z M 23720 -22098 l -53 193 -5 19 -5 18 -206 -7 -206 -6 -20 -6 -20 -5 188 127 188 126 -7 21 -7 22 -67 181 -68 180 3 3 3 4 167 -134 166 -133 4 0 4 0 166 133 167 134 3 -4 3 -3 -68 -180 -67 -181 -7 -22 -7 -21 188 -126 188 -127 -20 5 -20 6 -207 7 -208 6 0 -6 0 -7 -56 -202 -56 -202 -2 -3 -3 -2 -53 192 z " />
  </g>
</svg>